<?xml version="1.0" standalone="no"?>
<!DOCTYPE svg PUBLIC "-//W3C//DTD SVG 20010904//EN"
 "http://www.w3.org/TR/2001/REC-SVG-20010904/DTD/svg10.dtd">
<svg version="1.0" xmlns="http://www.w3.org/2000/svg"
 width="242.000000pt" height="80.000000pt" viewBox="0 0 242.000000 80.000000"
 preserveAspectRatio="xMidYMid meet">
<metadata>
Created by potrace 1.10, written by Peter Selinger 2001-2011
</metadata>
<g transform="translate(0.000000,80.000000) scale(0.100000,-0.100000)"
fill="#faebd7" stroke="none">
<path d="M1538 523 c-10 -2 -18 -8 -18 -13 0 -18 21 -21 56 -10 46 15 52 8 23
-29 -16 -20 -33 -30 -52 -30 -20 -1 -26 -5 -20 -13 11 -19 11 -30 -4 -60 -7
-15 -13 -41 -13 -58 0 -25 6 -33 35 -47 38 -18 63 -14 340 51 131 30 284 36
305 11 16 -19 40 -20 40 -1 0 22 -63 46 -122 46 -53 0 -308 -42 -327 -54 -5
-3 -53 -15 -106 -26 -101 -20 -126 -17 -139 17 -10 26 35 107 63 111 16 3 21
8 17 19 -4 9 1 24 10 34 27 30 14 54 -31 56 -22 0 -48 -1 -57 -4z"/>
<path d="M1318 446 c-58 -60 -211 -156 -247 -156 -20 0 -22 3 -16 28 12 45 23
136 18 145 -6 11 -33 -12 -33 -28 0 -7 -29 -23 -64 -34 -73 -24 -101 -19 -132
23 -19 25 -20 25 -72 11 -29 -8 -90 -19 -135 -25 -45 -7 -88 -15 -97 -20 -8
-4 -35 -11 -60 -14 -119 -19 -254 -75 -248 -104 5 -24 29 -26 35 -4 9 36 96
64 343 112 52 10 110 21 128 25 33 8 41 -2 21 -22 -7 -7 -9 -19 -6 -27 10 -26
41 -18 61 14 l17 30 29 -20 c25 -18 34 -19 86 -9 33 6 70 17 83 26 23 15 24
15 16 -8 -4 -13 -8 -44 -9 -69 -1 -44 0 -45 32 -48 25 -3 51 7 101 37 37 22
73 47 81 55 16 20 31 21 24 2 -11 -29 14 -24 46 9 19 19 28 35 22 35 -7 0 -15
-7 -18 -15 -4 -8 -13 -15 -22 -15 -11 0 -6 11 18 35 32 33 59 48 44 24 -3 -6
-8 -40 -11 -75 -4 -52 -2 -65 11 -70 18 -7 114 47 148 83 35 37 4 26 -67 -23
-81 -57 -95 -51 -69 31 13 40 15 61 8 73 -17 27 -31 25 -66 -12z"/>
</g>
</svg>
