<?xml version="1.0" standalone="no"?>
<!DOCTYPE svg PUBLIC "-//W3C//DTD SVG 1.1//EN" "http://www.w3.org/Graphics/SVG/1.1/DTD/svg11.dtd" >
<svg>
<metadata>
Created by FontForge 20090622 at Wed Mar  5 05:09:20 2014
 By ffonts
Redesigned by Giampietro Bubola for Castcraft Software, Inc. Copyright &#194;&#169; 1991-1992.
</metadata>
<defs>
<font id="OPTIGaramondSpecial-Light" horiz-adv-x="476" >
  <font-face 
    font-family="OPTIGaramondSpecial"
    font-weight="500"
    font-stretch="normal"
    units-per-em="1000"
    panose-1="0 0 0 0 0 0 0 0 0 0"
    ascent="686"
    descent="-314"
    x-height="386"
    cap-height="659"
    bbox="-64 -310.028 1083 865"
    underline-thickness="54"
    underline-position="-44"
    stemh="21"
    stemv="59"
    unicode-range="U+0020-U+F8FF"
  />
<missing-glyph horiz-adv-x="500" 
 />
    <glyph glyph-name=".notdef" horiz-adv-x="500" 
 />
    <glyph glyph-name="space" unicode=" " horiz-adv-x="241" 
 />
    <glyph glyph-name="exclam" unicode="!" horiz-adv-x="164" 
d="M37 43c0 29 23 51 51 51c29 0 51 -22 51 -51c0 -28 -22 -51 -51 -51c-28 0 -51 23 -51 51zM88 599c28 0 43 -16 43 -56c0 -46 -28 -265 -28 -336c0 -14 -4 -22 -15 -22c-9 0 -14 8 -14 22c0 70 -28 290 -28 336c0 40 15 56 42 56z" />
    <glyph glyph-name="quotedbl" unicode="&#x22;" horiz-adv-x="189" 
d="M56 503l-18 115c-4 23 6 37 26 37c19 0 28 -14 25 -37l-17 -115h-16zM130 503l-18 115c-4 23 6 37 26 37c19 0 29 -14 25 -37l-18 -115h-15z" />
    <glyph glyph-name="numbersign" unicode="#" horiz-adv-x="738" 
d="M363 682h43l-78 -225h173l78 225h43l-79 -225h170l-12 -33h-169l-60 -177h168l-10 -33h-169l-77 -222h-42l76 222h-172l-77 -222h-42l76 222h-166l11 33h166l61 177h-166l12 33h165zM256 247h173l61 177h-173z" />
    <glyph glyph-name="dollar" unicode="$" horiz-adv-x="390" 
d="M193 -12c-66 0 -156 27 -156 76c0 16 9 27 28 27c48 0 27 -77 128 -80v295c-120 114 -139 146 -139 209c0 110 97 146 139 151v18h16v-17c87 -2 152 -40 152 -84c0 -18 -10 -29 -28 -29c-53 0 -35 85 -124 87v-261c113 -98 156 -164 156 -231c0 -95 -70 -153 -156 -160
v-58h-16v57zM193 640c-35 -6 -88 -36 -88 -103c0 -49 34 -96 88 -142v245zM209 12c57 5 102 54 102 106c0 53 -39 110 -102 171v-277z" />
    <glyph glyph-name="percent" unicode="%" horiz-adv-x="598" 
d="M49 0l473 589h40l-473 -589h-40zM37 471c0 78 57 127 128 127s128 -49 128 -127c0 -79 -57 -128 -128 -128s-128 49 -128 128zM84 471c0 -67 37 -113 81 -113s81 46 81 113c0 66 -37 112 -81 112s-81 -46 -81 -112zM318 119c0 78 57 128 128 128s128 -50 128 -128
c0 -79 -57 -128 -128 -128s-128 49 -128 128zM365 119c0 -67 37 -113 81 -113s81 46 81 113s-37 113 -81 113s-81 -46 -81 -113z" />
    <glyph glyph-name="ampersand" unicode="&#x26;" horiz-adv-x="740" 
d="M569 78c47 -53 83 -54 118 -43c4 1 8 2 11 -4c3 -5 -1 -9 -4 -12c-32 -21 -57 -31 -85 -31c-39 0 -57 16 -112 77l-64 71c-101 -121 -140 -148 -209 -148c-98 0 -187 91 -187 191c0 89 49 163 166 212c-43 45 -58 78 -58 108c0 58 54 108 117 108c65 0 119 -42 119 -103
c0 -44 -34 -77 -104 -102l178 -198l121 166c26 35 8 52 -12 55l-37 6c-9 1 -17 3 -17 10c0 5 4 8 9 8c15 0 35 -5 101 -5c50 0 70 5 86 5c6 0 9 -2 9 -8s-4 -8 -17 -11l-24 -5c-16 -3 -26 -12 -51 -44l-151 -195zM97 207c0 -84 74 -165 152 -165c56 0 113 43 168 111
l-203 225c-78 -41 -117 -99 -117 -171zM336 506c0 50 -32 80 -72 80c-36 0 -66 -29 -66 -65c0 -26 12 -49 67 -105c49 25 71 53 71 90z" />
    <glyph glyph-name="quoteright" unicode="&#x2019;" horiz-adv-x="159" 
d="M47 619c0 20 17 36 39 36c28 0 49 -23 49 -63c0 -64 -61 -116 -90 -116c-5 0 -8 2 -8 7c0 7 9 7 20 13c28 16 48 48 37 88c-23 -7 -47 4 -47 35z" />
    <glyph glyph-name="parenleft" unicode="(" horiz-adv-x="233" 
d="M98 227c0 -179 39 -299 108 -417c5 -9 -7 -15 -12 -8c-104 140 -157 244 -157 425s53 285 157 425c5 7 18 1 12 -9c-68 -117 -108 -237 -108 -416z" />
    <glyph glyph-name="parenright" unicode=")" horiz-adv-x="233" 
d="M147 227c0 179 -39 299 -108 416c-6 10 7 16 12 9c104 -140 157 -244 157 -425s-53 -285 -157 -425c-5 -7 -18 -1 -12 8c70 118 108 238 108 417z" />
    <glyph glyph-name="asterisk" unicode="*" horiz-adv-x="295" 
d="M160 525c45 -26 71 -16 94 -30c16 -9 21 -23 13 -36c-8 -14 -21 -16 -37 -7c-24 14 -29 41 -73 67c0 -51 22 -69 22 -97c0 -17 -9 -28 -25 -28c-15 0 -24 11 -24 28c0 28 21 46 21 97c-44 -26 -49 -53 -72 -67c-16 -9 -30 -7 -38 7c-8 13 -3 27 13 36c24 14 50 4 94 30
c-45 25 -70 15 -94 29c-16 9 -21 24 -13 36c8 14 22 16 38 7c23 -14 28 -41 72 -67c0 52 -21 69 -21 97c0 17 9 28 24 28c16 0 25 -11 25 -28c0 -28 -22 -45 -22 -97c44 26 49 53 73 67c16 9 29 7 37 -7c8 -12 3 -27 -13 -36c-23 -14 -50 -4 -94 -29z" />
    <glyph glyph-name="plus" unicode="+" horiz-adv-x="412" 
d="M231 401v-156h156v-38h-156v-156h-37v156h-157v38h157v156h37z" />
    <glyph glyph-name="comma" unicode="," horiz-adv-x="159" 
d="M47 36c0 21 17 37 39 37c28 0 49 -24 49 -63c0 -64 -61 -116 -90 -116c-5 0 -8 2 -8 7c0 7 9 7 20 13c28 15 48 48 37 88c-23 -8 -47 4 -47 34z" />
    <glyph glyph-name="hyphen" unicode="-" horiz-adv-x="390" 
d="M365 206v-42h-328v42h328z" />
    <glyph glyph-name="period" unicode="." horiz-adv-x="144" 
d="M37 32c0 23 19 42 42 42c22 0 41 -19 41 -42c0 -22 -19 -41 -41 -41c-23 0 -42 19 -42 41z" />
    <glyph glyph-name="slash" unicode="/" horiz-adv-x="512" 
d="M37 0l410 655h40l-409 -655h-41z" />
    <glyph glyph-name="zero" unicode="0" 
d="M37 328c0 216 89 339 199 339s198 -123 198 -339c0 -217 -88 -340 -198 -340s-199 123 -199 340zM110 328c0 -211 37 -317 126 -317c88 0 125 106 125 317c0 210 -37 316 -125 316c-89 0 -126 -106 -126 -316z" />
    <glyph glyph-name="one" unicode="1" 
d="M283 673v-627c0 -20 1 -22 16 -24l59 -6c10 -1 13 -4 13 -12c0 -6 -5 -9 -11 -9c-16 0 -30 5 -113 5c-84 0 -98 -5 -113 -5c-7 0 -12 2 -12 9c0 8 3 11 14 12l58 6c15 2 16 5 16 24v558c-39 -18 -79 -29 -88 -29c-5 0 -10 2 -10 8c0 8 5 11 14 14c57 18 112 41 157 76z
" />
    <glyph glyph-name="two" unicode="2" 
d="M429 62v-62h-371c213 237 292 377 292 474s-45 153 -119 153c-92 0 -151 -79 -165 -79c-5 0 -8 3 -8 9c0 10 86 110 192 110c102 0 169 -64 169 -158s-56 -197 -186 -349l-84 -98h280z" />
    <glyph glyph-name="three" unicode="3" 
d="M402 215c0 -136 -140 -227 -259 -227c-53 0 -106 15 -106 31c0 7 3 9 11 9c12 0 35 -17 89 -17c102 0 198 95 198 197c0 98 -78 153 -154 153c-7 0 -11 2 -11 7c0 7 3 8 7 11c96 55 131 99 131 160c0 59 -39 95 -100 95c-68 0 -110 -46 -120 -46c-5 0 -7 3 -7 8
c0 9 75 71 153 71s133 -49 133 -118c0 -51 -24 -96 -116 -147c94 -20 151 -90 151 -187z" />
    <glyph glyph-name="four" unicode="4" 
d="M380 239h62v-62h-62v-177h-73v177h-279l352 498v-436zM98 239h209v296z" />
    <glyph glyph-name="five" unicode="5" 
d="M367 242c0 -143 -107 -254 -244 -254c-28 0 -40 4 -40 14c0 11 12 13 30 13c124 0 192 112 192 211s-71 214 -193 257l63 172h152c34 0 38 18 51 18c7 0 14 -5 7 -20l-28 -61h-176l-21 -59c131 -63 207 -171 207 -291z" />
    <glyph glyph-name="six" unicode="6" 
d="M435 658c-204 -41 -326 -193 -326 -413c0 -142 56 -230 146 -230c77 0 125 63 125 163c0 128 -88 176 -143 176c-35 0 -64 -14 -92 -37c-8 -8 -20 5 -10 15c41 42 82 60 134 60c103 0 177 -86 177 -204c0 -109 -85 -200 -190 -200c-131 0 -219 110 -219 275
c0 212 163 379 395 416c14 2 17 -18 3 -21z" />
    <glyph glyph-name="seven" unicode="7" 
d="M146 592c-64 0 -64 -55 -83 -55c-8 0 -10 6 -4 19l47 99h331l-362 -667c-8 -14 -14 -17 -21 -17c-10 0 -17 3 -17 14c0 7 2 13 15 36l322 571h-228z" />
    <glyph glyph-name="eight" unicode="8" 
d="M416 152c0 -88 -87 -164 -189 -164c-104 0 -180 65 -180 151c0 81 55 131 147 194c-110 85 -132 124 -132 181c0 93 70 153 167 153c89 0 155 -59 155 -141c0 -67 -50 -114 -117 -161c114 -91 149 -147 149 -213zM99 136c0 -69 51 -120 123 -120c77 0 132 48 132 113
s-54 116 -143 190c-82 -65 -112 -121 -112 -183zM340 531c0 62 -50 108 -120 108c-59 0 -108 -44 -108 -97c0 -51 25 -74 138 -164c75 59 90 100 90 153z" />
    <glyph glyph-name="nine" unicode="9" 
d="M48 -3c204 41 326 194 326 414c0 141 -56 229 -146 229c-77 0 -125 -62 -125 -163c0 -128 89 -175 144 -175c34 0 63 13 91 36c9 8 21 -5 11 -15c-42 -42 -83 -60 -135 -60c-103 0 -177 86 -177 205c0 109 86 199 190 199c132 0 219 -110 219 -275
c0 -212 -163 -379 -395 -416c-14 -2 -17 18 -3 21z" />
    <glyph glyph-name="colon" unicode=":" horiz-adv-x="144" 
d="M37 32c0 23 19 42 42 42c22 0 41 -19 41 -42c0 -22 -19 -41 -41 -41c-23 0 -42 19 -42 41zM37 345c0 22 19 41 42 41c22 0 41 -19 41 -41c0 -23 -19 -41 -41 -41c-23 0 -42 18 -42 41z" />
    <glyph glyph-name="semicolon" unicode=";" horiz-adv-x="149" 
d="M39 345c0 22 19 41 42 41c22 0 41 -19 41 -41c0 -23 -19 -41 -41 -41c-23 0 -42 18 -42 41zM37 36c0 21 17 37 40 37c27 0 48 -24 48 -63c0 -64 -61 -116 -90 -116c-5 0 -7 2 -7 7c0 7 8 7 19 13c29 15 48 48 37 88c-23 -8 -47 4 -47 34z" />
    <glyph glyph-name="less" unicode="&#x3c;" horiz-adv-x="627" 
d="M602 491l-490 -198l490 -199v-52l-565 231v39l565 231v-52z" />
    <glyph glyph-name="equal" unicode="=" horiz-adv-x="586" 
d="M562 406v-47h-525v47h525zM562 227v-47h-525v47h525z" />
    <glyph glyph-name="greater" unicode="&#x3e;" horiz-adv-x="627" 
d="M37 491v52l565 -231v-39l-565 -231v52l491 199z" />
    <glyph glyph-name="question" unicode="?" horiz-adv-x="285" 
d="M78 265c0 55 138 72 138 202c0 60 -34 106 -79 106c-26 0 -34 -26 -65 -26c-17 0 -29 9 -29 25c0 17 18 29 47 29c102 0 170 -65 170 -187c0 -98 -164 -160 -164 -193v-38c0 -16 -18 -16 -18 0v82zM37 43c0 29 23 51 51 51c29 0 51 -22 51 -51c0 -28 -22 -51 -51 -51
c-28 0 -51 23 -51 51z" />
    <glyph glyph-name="at" unicode="@" horiz-adv-x="754" 
d="M332 148c-64 0 -109 55 -109 133c0 116 101 222 194 222c46 0 77 -25 88 -80l22 73h53l-68 -243c-17 -59 -3 -86 30 -86c62 0 170 83 170 243c0 148 -113 254 -281 254c-204 0 -349 -150 -349 -359c0 -228 196 -299 327 -299c89 0 177 29 248 83l12 -13
c-84 -61 -163 -88 -265 -88c-217 0 -367 133 -367 325c0 206 171 369 388 369c184 0 305 -108 305 -274c0 -139 -92 -260 -192 -260c-52 0 -83 26 -81 88c-30 -57 -76 -88 -125 -88zM275 251c0 -51 25 -83 63 -83c85 0 149 145 149 230c0 51 -26 90 -70 90
c-83 0 -142 -171 -142 -237z" />
    <glyph glyph-name="A" unicode="A" horiz-adv-x="708" 
d="M65 18c15 2 20 8 34 43l248 608c3 8 6 13 11 13c9 0 9 -14 18 -36l236 -573c17 -42 27 -48 43 -51l33 -7c10 -2 15 -5 15 -10c0 -7 -3 -9 -10 -9c-19 0 -39 4 -102 4c-72 0 -92 -4 -109 -4c-7 0 -10 1 -10 8c0 8 5 9 16 10l33 4c29 4 30 15 16 49l-92 226h-216l-80 -230
c-11 -32 -8 -41 10 -43l47 -6c15 -2 17 -4 17 -10s-5 -8 -11 -8c-18 0 -49 4 -98 4c-33 0 -68 -4 -84 -4c-10 0 -12 3 -12 8c0 6 3 8 10 9zM434 317l-107 262l-90 -262h197z" />
    <glyph glyph-name="B" unicode="B" horiz-adv-x="564" 
d="M296 22c108 0 169 65 169 160c0 144 -92 164 -196 164c-28 0 -58 -1 -71 -2v-316c25 -4 66 -6 98 -6zM198 372c11 -1 33 -2 54 -2c106 0 165 59 165 142c0 79 -56 122 -160 122c-16 0 -30 -1 -59 -3v-259zM162 0c-86 0 -98 -4 -112 -4c-8 0 -13 1 -13 8c0 6 4 8 9 9l64 8
c16 2 16 5 16 21v571c0 17 0 20 -16 22l-64 7c-5 1 -9 3 -9 9c0 7 5 8 13 8c14 0 26 -4 112 -4c87 0 103 4 139 4c144 0 186 -81 186 -144c0 -64 -31 -111 -113 -148c100 -27 165 -86 165 -172c0 -70 -41 -198 -240 -198c-42 0 -94 3 -137 3z" />
    <glyph glyph-name="C" unicode="C" horiz-adv-x="625" 
d="M354 -12c-216 0 -317 191 -317 332c0 197 150 347 340 347c63 0 126 -9 200 -49l22 -85c2 -9 2 -17 -6 -17c-6 0 -9 2 -13 13l-22 55c-61 39 -119 59 -189 59c-149 0 -262 -138 -262 -326c0 -143 88 -302 266 -302c59 0 126 24 184 67l16 54c2 7 4 10 10 10s9 -3 8 -13
l-9 -88c-85 -43 -144 -57 -228 -57z" />
    <glyph glyph-name="D" unicode="D" horiz-adv-x="731" 
d="M198 28c26 -3 85 -7 140 -7c213 0 293 153 293 316c0 139 -61 295 -281 295c-54 0 -123 -4 -152 -7v-597zM162 0c-86 0 -98 -4 -112 -4c-8 0 -13 1 -13 8c0 6 4 8 9 9l64 8c16 2 16 5 16 21v571c0 17 0 20 -16 22l-64 7c-5 1 -9 3 -9 9c0 7 5 8 13 8c14 0 26 -4 112 -4
c87 0 154 4 198 4c266 0 346 -182 346 -326c0 -140 -91 -337 -344 -337c-94 0 -158 4 -200 4z" />
    <glyph glyph-name="E" unicode="E" horiz-adv-x="558" 
d="M198 23c270 5 280 12 289 31l27 57c6 12 7 14 14 14c5 0 6 -7 3 -18l-34 -115c-47 3 -267 8 -335 8c-86 0 -98 -4 -112 -4c-8 0 -13 1 -13 8c0 6 4 8 9 9l64 8c16 2 16 5 16 21v571c0 17 0 20 -16 22l-64 7c-5 1 -9 3 -9 9c0 7 5 8 13 8c14 0 26 -4 112 -4
c87 0 259 3 317 7l37 -95c4 -10 1 -18 -5 -18s-10 3 -15 13l-26 48c-9 16 -8 17 -272 25v-285l218 11c14 1 17 2 19 18l6 46c1 7 4 10 9 10c7 0 8 -5 8 -13c0 -16 -4 -41 -4 -81c0 -39 4 -65 4 -82c0 -8 -1 -12 -8 -12c-5 0 -8 3 -9 9l-6 47c-2 15 -5 17 -19 18l-218 11
v-309z" />
    <glyph glyph-name="F" unicode="F" horiz-adv-x="534" 
d="M198 42c0 -16 0 -19 16 -21l64 -8c5 -1 9 -3 9 -9c0 -7 -5 -8 -13 -8c-14 0 -25 4 -112 4c-86 0 -98 -4 -112 -4c-8 0 -13 1 -13 8c0 6 4 8 9 9l64 8c16 2 16 5 16 21v571c0 17 0 20 -16 22l-64 7c-5 1 -9 3 -9 9c0 7 5 8 13 8c14 0 26 -4 112 -4c87 0 281 3 339 7
l36 -95c4 -10 1 -18 -5 -18c-5 0 -8 2 -14 13l-28 50c-7 12 -11 14 -292 23v-285l218 11c14 1 17 2 19 18l6 46c1 7 4 10 9 10c7 0 8 -5 8 -13c0 -16 -4 -41 -4 -81c0 -39 4 -65 4 -82c0 -8 -1 -12 -8 -12c-5 0 -8 3 -9 9l-6 47c-2 15 -5 17 -19 18l-218 11v-290z" />
    <glyph glyph-name="G" unicode="G" horiz-adv-x="717" 
d="M531 221c0 17 0 20 -15 22l-64 7c-5 1 -9 3 -9 9c0 7 5 8 13 8c14 0 25 -4 112 -4c86 0 98 4 112 4c8 0 13 -1 13 -8c0 -6 -4 -8 -9 -9l-64 -7c-16 -2 -16 -5 -16 -22v-174c-93 -40 -161 -59 -249 -59c-210 0 -318 181 -318 333c0 193 146 346 342 346
c72 0 134 -14 198 -49l28 -106c2 -9 1 -14 -6 -14s-9 5 -12 13l-29 73c-58 38 -121 59 -186 59c-154 0 -265 -139 -265 -326c0 -148 91 -302 267 -302c50 0 110 21 157 49v157z" />
    <glyph glyph-name="H" unicode="H" horiz-adv-x="783" 
d="M198 302v-260c0 -16 0 -19 16 -21l64 -8c5 -1 9 -3 9 -9c0 -7 -5 -8 -13 -8c-14 0 -25 4 -112 4c-86 0 -98 -4 -112 -4c-8 0 -13 1 -13 8c0 6 4 8 9 9l64 8c16 2 16 5 16 21v571c0 17 0 20 -16 22l-64 7c-5 1 -9 3 -9 9c0 7 5 8 13 8c14 0 26 -4 112 -4c87 0 98 4 112 4
c8 0 13 -1 13 -8c0 -6 -4 -8 -9 -9l-64 -7c-16 -2 -16 -5 -16 -22v-286h399v286c0 17 0 20 -15 22l-64 7c-5 1 -9 3 -9 9c0 7 5 8 13 8c13 0 25 -4 112 -4c86 0 98 4 112 4c7 0 12 -1 12 -8c0 -6 -4 -8 -8 -9l-64 -7c-16 -2 -16 -5 -16 -22v-571c0 -16 0 -19 16 -21l64 -8
c4 -1 8 -3 8 -9c0 -7 -5 -8 -12 -8c-14 0 -26 4 -112 4c-87 0 -99 -4 -112 -4c-8 0 -13 1 -13 8c0 6 4 8 9 9l64 8c15 2 15 5 15 21v260h-399z" />
    <glyph glyph-name="I" unicode="I" horiz-adv-x="311" 
d="M126 42v571c0 17 0 20 -16 22l-64 7c-5 1 -9 3 -9 9c0 7 5 8 13 8c14 0 26 -4 112 -4c87 0 98 4 112 4c8 0 13 -1 13 -8c0 -6 -4 -8 -9 -9l-64 -7c-16 -2 -16 -5 -16 -22v-571c0 -16 0 -19 16 -21l64 -8c5 -1 9 -3 9 -9c0 -7 -5 -8 -13 -8c-14 0 -25 4 -112 4
c-86 0 -98 -4 -112 -4c-8 0 -13 1 -13 8c0 6 4 8 9 9l64 8c16 2 16 5 16 21z" />
    <glyph glyph-name="J" unicode="J" horiz-adv-x="311" 
d="M198 -17c0 -146 -65 -232 -150 -232c-38 0 -64 18 -64 42c0 19 15 30 34 30c35 0 43 -36 68 -36c13 0 40 6 40 83v743c0 17 0 20 -16 22l-64 7c-5 1 -9 3 -9 9c0 7 5 8 13 8c14 0 26 -4 112 -4c87 0 98 4 112 4c8 0 13 -1 13 -8c0 -6 -4 -8 -9 -9l-64 -7
c-16 -2 -16 -5 -16 -22v-630z" />
    <glyph glyph-name="K" unicode="K" horiz-adv-x="688" 
d="M452 617c8 9 6 18 -9 20l-26 4c-9 1 -12 4 -12 10c0 8 7 8 12 8c16 0 39 -4 74 -4c85 0 98 4 110 4c10 0 14 -1 14 -8c0 -5 -1 -8 -17 -10l-40 -4c-27 -3 -33 -5 -61 -32l-231 -223l331 -339c22 -22 31 -25 43 -27l16 -2c12 -2 17 -2 17 -10c0 -7 -5 -8 -12 -8
c-13 0 -42 4 -117 4c-54 0 -87 -4 -98 -4c-10 0 -13 3 -13 8c0 6 2 8 10 9l46 6c22 3 19 11 9 22l-293 305zM126 42v571c0 17 0 20 -16 22l-64 7c-5 1 -9 3 -9 9c0 7 5 8 13 8c14 0 26 -4 112 -4c87 0 98 4 112 4c8 0 13 -1 13 -8c0 -6 -4 -8 -9 -9l-64 -7
c-16 -2 -16 -5 -16 -22v-571c0 -16 0 -19 16 -21l64 -8c5 -1 9 -3 9 -9c0 -7 -5 -8 -13 -8c-14 0 -25 4 -112 4c-86 0 -98 -4 -112 -4c-8 0 -13 1 -13 8c0 6 4 8 9 9l64 8c16 2 16 5 16 21z" />
    <glyph glyph-name="L" unicode="L" horiz-adv-x="563" 
d="M126 613c0 17 0 20 -16 22l-64 7c-5 1 -9 3 -9 9c0 7 5 8 13 8c14 0 26 -4 112 -4c87 0 98 4 112 4c8 0 13 -1 13 -8c0 -6 -4 -8 -9 -9l-64 -7c-16 -2 -16 -5 -16 -22v-590c270 4 276 3 298 31l42 52c6 7 7 9 13 9c8 0 8 -9 3 -17l-63 -106c-60 3 -282 8 -329 8
c-86 0 -98 -4 -112 -4c-8 0 -13 1 -13 8c0 6 4 8 9 9l64 8c16 2 16 5 16 21v571z" />
    <glyph glyph-name="M" unicode="M" horiz-adv-x="886" 
d="M836 659c8 0 13 -1 13 -8c0 -6 -4 -8 -9 -9l-56 -6c-14 -2 -15 -5 -15 -17l8 -581c0 -12 2 -16 20 -18l56 -7c6 -1 8 -4 8 -9c0 -7 -6 -8 -12 -8c-16 0 -31 4 -100 4c-68 0 -94 -4 -108 -4c-5 0 -11 1 -11 7c0 9 7 10 17 11l47 6c14 2 17 6 17 17l-7 514l-253 -552
l-285 551l7 -511c0 -11 5 -16 21 -18l65 -8c7 -1 9 -4 9 -9c0 -6 -6 -8 -12 -8c-14 0 -43 4 -103 4c-61 0 -92 -4 -103 -4c-7 0 -13 1 -13 8c0 6 3 8 10 9l70 9c12 2 17 4 17 16l17 576c0 13 -1 19 -15 21l-64 7c-5 1 -9 3 -9 9c0 7 5 8 13 8c13 0 24 -4 118 -4l278 -539
l259 539c75 0 91 4 105 4z" />
    <glyph glyph-name="N" unicode="N" horiz-adv-x="808" 
d="M634 635l-64 7c-5 1 -9 3 -9 9c0 7 5 8 13 8c13 0 44 -4 98 -4c57 0 87 4 99 4c8 0 13 -1 13 -8c0 -6 -4 -8 -9 -9l-64 -7c-17 -2 -20 -6 -20 -20l-17 -567c-1 -45 -1 -53 -10 -53c-10 0 -13 12 -26 28l-478 559l8 -542c0 -14 5 -17 19 -19l63 -8c5 -1 9 -3 9 -9
c0 -7 -5 -8 -12 -8c-14 0 -30 4 -100 4c-61 0 -83 -4 -97 -4c-8 0 -13 1 -13 8c0 6 4 8 9 9l64 8c18 2 21 5 21 19l12 578c0 13 -2 17 -11 18l-55 6c-5 1 -9 3 -9 9c0 7 6 8 13 8c13 0 21 -4 108 -4l467 -546l-3 506c0 15 -3 18 -19 20z" />
    <glyph glyph-name="O" unicode="O" horiz-adv-x="724" 
d="M37 325c0 194 144 342 331 342c190 0 331 -148 331 -348c0 -173 -126 -331 -331 -331c-193 0 -331 141 -331 337zM622 324c0 183 -109 319 -255 319c-144 0 -251 -136 -251 -319c0 -163 93 -312 251 -312c195 0 255 202 255 312z" />
    <glyph glyph-name="P" unicode="P" horiz-adv-x="543" 
d="M198 42c0 -16 0 -19 16 -21l64 -8c5 -1 9 -3 9 -9c0 -7 -5 -8 -13 -8c-14 0 -25 4 -112 4c-86 0 -98 -4 -112 -4c-8 0 -13 1 -13 8c0 6 4 8 9 9l64 8c16 2 16 5 16 21v571c0 17 0 20 -16 22l-64 7c-5 1 -9 3 -9 9c0 7 5 8 13 8c14 0 26 -4 112 -4c87 0 87 4 143 4
c115 0 214 -69 214 -194c0 -120 -101 -209 -235 -209c-16 0 -26 1 -36 3c-14 3 -9 23 2 21c8 -1 19 -2 30 -2c99 0 160 69 160 181c0 138 -82 175 -181 175c-59 0 -61 -4 -61 -29v-563z" />
    <glyph glyph-name="Q" unicode="Q" horiz-adv-x="724" 
d="M622 324c0 183 -109 319 -255 319c-144 0 -251 -136 -251 -319c0 -163 93 -312 251 -312c195 0 255 202 255 312zM363 -12c28 -128 160 -203 290 -203c5 0 23 1 33 2c15 2 19 -21 4 -24c-19 -4 -51 -6 -63 -6c-171 0 -309 76 -350 242c-143 37 -240 162 -240 326
c0 194 144 342 331 342c190 0 331 -148 331 -348c0 -174 -126 -331 -336 -331z" />
    <glyph glyph-name="R" unicode="R" horiz-adv-x="610" 
d="M207 344c117 0 184 56 184 153c0 90 -48 139 -138 139c-20 0 -40 0 -55 -1v-291h9zM297 657c131 0 166 -98 166 -153c0 -82 -53 -144 -145 -165c20 -6 29 -18 58 -65l116 -184c24 -37 51 -79 93 -79c3 0 7 0 11 1c8 3 14 -7 4 -13c-17 -10 -31 -11 -49 -11
c-73 0 -107 49 -134 92l-110 177c-30 48 -48 64 -87 64h-22v-279c0 -16 0 -19 16 -21l64 -8c5 -1 9 -3 9 -9c0 -7 -5 -8 -13 -8c-14 0 -25 4 -112 4c-86 0 -98 -4 -112 -4c-8 0 -13 1 -13 8c0 6 4 8 9 9l64 8c16 2 16 5 16 21v571c0 17 0 20 -16 22l-64 7c-5 1 -9 3 -9 9
c0 7 5 8 13 8c14 0 26 -4 112 -4c67 0 107 2 135 2z" />
    <glyph glyph-name="S" unicode="S" horiz-adv-x="422" 
d="M37 115c-1 10 2 15 7 15c6 0 9 -5 11 -13l20 -64c43 -26 78 -40 108 -40c89 0 146 55 146 150c0 148 -279 177 -279 346c0 90 76 158 176 158c40 0 79 -8 126 -26l21 -82c3 -12 2 -19 -5 -19c-6 0 -7 3 -10 10l-20 51c-48 28 -84 38 -126 38c-60 0 -102 -40 -102 -98
c0 -150 288 -176 288 -356c0 -117 -89 -197 -211 -197c-42 0 -96 15 -141 39z" />
    <glyph glyph-name="T" unicode="T" horiz-adv-x="583" 
d="M334 42c0 -16 0 -19 16 -21l64 -8c4 -1 8 -3 8 -9c0 -7 -5 -8 -12 -8c-14 0 -26 4 -112 4c-87 0 -99 -4 -112 -4c-8 0 -13 1 -13 8c0 6 4 8 9 9l64 8c15 2 15 5 15 21v571c0 16 -4 18 -23 18c-174 0 -174 1 -181 -17l-24 -63c-3 -8 -5 -11 -10 -11s-6 3 -4 13l27 115
c3 12 7 13 10 13c4 0 6 -3 8 -12c4 -15 -1 -14 234 -14s230 -1 233 14c2 9 4 12 8 12c3 0 7 -1 10 -13l28 -115c2 -10 1 -13 -4 -13c-6 0 -8 3 -11 11l-24 63c-7 18 -7 17 -180 17c-20 0 -24 -2 -24 -18v-571z" />
    <glyph glyph-name="U" unicode="U" horiz-adv-x="745" 
d="M624 213c-3 -137 -50 -225 -243 -225c-109 0 -255 35 -255 201v424c0 17 0 20 -16 22l-64 7c-5 1 -9 3 -9 9c0 7 5 8 13 8c14 0 26 -4 112 -4c87 0 98 4 112 4c8 0 13 -1 13 -8c0 -6 -4 -8 -9 -9l-64 -7c-16 -2 -16 -5 -16 -22v-436c0 -126 107 -162 191 -162
c163 0 209 78 208 205l-3 393c0 17 0 20 -15 22l-64 7c-5 1 -9 3 -9 9c0 7 5 8 13 8c13 0 45 -4 94 -4c51 0 81 4 94 4c8 0 13 -1 13 -8c0 -6 -4 -8 -9 -9l-64 -7c-15 -2 -15 -5 -15 -22z" />
    <glyph glyph-name="V" unicode="V" horiz-adv-x="728" 
d="M633 611l-263 -619c-4 -10 -7 -14 -11 -14c-5 0 -7 3 -10 11l-242 624c-7 18 -10 22 -32 24l-48 5c-5 1 -9 3 -9 9c0 7 5 8 12 8c14 0 26 -4 112 -4c87 0 99 4 112 4c8 0 13 -1 13 -8c0 -6 -3 -8 -9 -9l-56 -6c-18 -2 -23 -13 -14 -36l199 -516l201 517c9 23 3 32 -16 34
l-64 7c-5 1 -9 3 -9 9c0 7 5 8 13 8c14 0 47 -4 105 -4c56 0 79 4 93 4c8 0 13 -1 13 -8c0 -6 -4 -8 -9 -9l-47 -5c-23 -2 -26 -6 -34 -26z" />
    <glyph glyph-name="W" unicode="W" horiz-adv-x="1088" 
d="M730 -8c-4 -10 -7 -14 -12 -14s-7 3 -10 11l-161 420l-177 -417c-4 -10 -7 -14 -11 -14c-5 0 -7 3 -10 11l-239 617c-10 25 -16 29 -35 31l-48 5c-5 1 -9 3 -9 9c0 7 5 8 12 8c14 0 26 -4 112 -4c87 0 99 4 112 4c8 0 13 -1 13 -8c0 -6 -4 -8 -9 -9l-56 -6
c-20 -2 -23 -14 -14 -36l199 -516l143 368l-57 148c-12 31 -14 35 -36 37l-47 5c-5 1 -9 3 -9 9c0 7 5 8 13 8c14 0 25 -4 112 -4c86 0 98 4 112 4c8 0 13 -1 13 -8c0 -6 -4 -8 -9 -9l-64 -7c-19 -2 -19 -11 -10 -35l199 -516l198 506c12 31 10 42 -14 45l-64 7
c-5 1 -8 3 -8 9c0 7 4 8 12 8c14 0 33 -4 100 -4c79 0 86 4 100 4c8 0 12 -1 12 -8c0 -6 -3 -8 -8 -9l-48 -5c-20 -2 -25 -4 -39 -36z" />
    <glyph glyph-name="X" unicode="X" horiz-adv-x="678" 
d="M558 593l-175 -225l204 -330c8 -13 15 -17 37 -20l40 -5c5 -1 9 -3 9 -9c0 -7 -5 -8 -13 -8c-14 0 -45 4 -115 4c-74 0 -109 -4 -123 -4c-7 0 -12 1 -12 8c0 6 4 8 8 9l56 7c23 3 26 13 13 35l-154 255l-167 -247c-21 -31 -18 -40 1 -42l64 -8c5 -1 9 -3 9 -9
c0 -7 -5 -8 -13 -8c-14 0 -36 4 -104 4c-61 0 -79 -4 -93 -4c-7 0 -12 1 -12 8c0 6 4 8 9 9l40 5c19 2 26 5 43 28l213 280l-174 282c-15 24 -17 27 -43 30l-40 4c-5 1 -9 3 -9 9c0 7 5 8 13 8c13 0 45 -4 115 -4c73 0 109 4 122 4c8 0 13 -1 13 -8c0 -6 -4 -8 -9 -9l-63 -7
c-18 -2 -21 -17 -8 -37l134 -216l151 224c11 16 9 27 -9 29l-64 7c-5 1 -9 3 -9 9c0 7 5 8 13 8c14 0 35 -4 104 -4s77 4 90 4c8 0 13 -1 13 -8c0 -6 -3 -8 -9 -9l-40 -4c-23 -2 -26 -7 -56 -45z" />
    <glyph glyph-name="Y" unicode="Y" horiz-adv-x="646" 
d="M550 598l-182 -290v-266c0 -16 0 -19 16 -21l64 -8c5 -1 9 -3 9 -9c0 -7 -5 -8 -13 -8c-14 0 -26 4 -112 4s-98 -4 -112 -4c-8 0 -13 1 -13 8c0 6 4 8 9 9l64 8c16 2 16 5 16 21v260l-196 310c-11 18 -17 24 -34 26l-39 4c-5 1 -9 3 -9 9c0 7 5 8 12 8c14 0 26 -4 112 -4
c87 0 99 4 112 4c8 0 13 -1 13 -8c0 -6 -3 -8 -9 -9l-47 -5c-23 -2 -31 -15 -11 -46l161 -254l145 255c17 30 8 43 -20 46l-40 4c-5 1 -9 3 -9 9c0 7 5 8 13 8c14 0 37 -4 99 -4c56 0 66 4 80 4c8 0 12 -1 12 -8c0 -6 -2 -8 -8 -9l-33 -3c-19 -2 -30 -10 -50 -41z" />
    <glyph glyph-name="Z" unicode="Z" horiz-adv-x="625" 
d="M493 630l-348 -9c-15 0 -22 -3 -33 -33l-21 -58c-5 -13 -9 -16 -14 -16c-7 0 -9 6 -6 17l29 128c2 8 4 14 10 14c9 0 9 -18 51 -18h347c37 0 76 1 92 4l-453 -634l359 11c35 1 44 4 54 30l19 51c3 8 5 12 12 12c9 0 10 -8 7 -20l-29 -115c-18 4 -43 6 -74 6h-384
c-23 0 -53 -3 -74 -7z" />
    <glyph glyph-name="bracketleft" unicode="[" horiz-adv-x="222" 
d="M86 605v-761c0 -21 5 -28 27 -28h65c13 0 19 -3 19 -10c0 -9 -4 -12 -19 -12h-97c-37 0 -44 7 -44 45v771c0 38 7 45 44 45h97c15 0 19 -3 19 -12c0 -7 -6 -10 -19 -10h-65c-22 0 -27 -7 -27 -28z" />
    <glyph glyph-name="backslash" unicode="\" horiz-adv-x="511" 
d="M37 655h41l408 -655h-39z" />
    <glyph glyph-name="bracketright" unicode="]" horiz-adv-x="223" 
d="M148 605c0 21 -5 28 -26 28h-65c-13 0 -20 3 -20 10c0 9 5 12 20 12h97c37 0 43 -7 43 -45v-771c0 -38 -6 -45 -43 -45h-97c-15 0 -20 3 -20 12c0 7 7 10 20 10h65c21 0 26 7 26 28v761z" />
    <glyph glyph-name="asciicircum" unicode="^" horiz-adv-x="292" 
d="M132 584h40l95 -149h-20l-95 99l-95 -99h-20z" />
    <glyph glyph-name="underscore" unicode="_" horiz-adv-x="562" 
d="M-12 -170v38h583v-38h-583z" />
    <glyph glyph-name="quoteleft" unicode="&#x2018;" horiz-adv-x="159" 
d="M125 513c0 -21 -17 -37 -40 -37c-27 0 -48 24 -48 63c0 64 61 116 90 116c5 0 8 -2 8 -7c0 -7 -9 -6 -20 -12c-29 -15 -48 -49 -37 -89c23 8 47 -4 47 -34z" />
    <glyph glyph-name="a" unicode="a" horiz-adv-x="361" 
d="M187 397c65 0 94 -28 94 -93v-250c0 -27 9 -40 28 -40c12 0 27 9 27 -4c0 -11 -30 -21 -53 -21c-38 0 -56 16 -60 50c-63 -39 -88 -50 -116 -50c-42 0 -70 30 -70 85c0 35 20 56 58 75l127 63v90c0 42 -25 67 -64 67c-44 0 -71 -24 -76 -72l-43 -9c7 63 83 109 148 109z
M129 144c-30 -17 -39 -31 -39 -61c0 -40 21 -59 47 -59c22 0 50 9 85 31v141z" />
    <glyph glyph-name="b" unicode="b" horiz-adv-x="467" 
d="M285 397c95 0 157 -72 157 -182c0 -125 -93 -226 -210 -226c-37 0 -78 10 -112 33l-43 -39v600c0 34 -5 37 -40 56l99 43v-343c63 40 107 58 149 58zM136 57c34 -29 65 -43 103 -43c79 0 145 76 145 171c0 98 -62 173 -143 173c-34 0 -62 -10 -105 -39v-262z" />
    <glyph glyph-name="c" unicode="c" horiz-adv-x="398" 
d="M365 67c-50 -53 -87 -78 -151 -78c-105 0 -177 76 -177 190s104 218 221 218c64 0 115 -36 115 -51s-15 -36 -30 -36c-21 0 -40 61 -104 61c-81 0 -142 -76 -142 -175c0 -94 64 -165 148 -165c36 0 73 12 109 50z" />
    <glyph glyph-name="d" unicode="d" horiz-adv-x="482" 
d="M346 588c0 26 -7 34 -40 51l99 43v-611c0 -25 4 -31 24 -31c9 0 26 8 29 -2c1 -4 -3 -8 -9 -10l-103 -45v56c-57 -29 -104 -50 -148 -50c-94 0 -161 75 -161 179c0 124 98 229 212 229c37 0 64 -8 97 -26v217zM244 373c-85 0 -142 -76 -142 -189c0 -97 51 -156 135 -156
c36 0 74 7 109 29v274c-24 27 -62 42 -102 42z" />
    <glyph glyph-name="e" unicode="e" horiz-adv-x="382" 
d="M99 272c-6 -15 -11 -35 -11 -58c0 -103 70 -183 160 -183c36 0 66 12 98 44l12 -14c-45 -46 -101 -72 -155 -72c-101 0 -166 73 -166 187c0 121 86 221 188 221c68 0 124 -50 124 -125h-250zM219 375c-48 0 -87 -29 -114 -86l185 6c-6 55 -29 80 -71 80z" />
    <glyph glyph-name="f" unicode="f" horiz-adv-x="262" 
d="M167 39c0 -14 3 -16 19 -19l40 -7c8 -1 12 -3 12 -9c0 -5 -3 -8 -10 -8c-16 0 -22 4 -90 4c-69 0 -75 -4 -91 -4c-7 0 -10 3 -10 8c0 6 4 8 12 9l40 7c16 3 19 5 19 19v322h-43v25h43v52c0 147 65 232 121 232c20 0 31 -10 31 -28s-13 -28 -38 -28c-17 0 -24 3 -34 3
c-15 0 -21 -23 -21 -84v-147h79v-25h-79v-322z" />
    <glyph glyph-name="g" unicode="g" horiz-adv-x="424" 
d="M411 355v-27h-82c18 -25 26 -53 26 -81c0 -87 -71 -153 -163 -153c-10 0 -30 2 -45 6c-41 -32 -55 -51 -55 -68c0 -16 17 -27 47 -27c44 0 132 10 173 10c74 0 107 -32 107 -99c0 -113 -140 -226 -253 -226c-86 0 -138 40 -138 108c0 48 23 103 80 152
c-43 4 -67 24 -67 54c0 37 38 66 92 102c-63 26 -96 71 -96 133c0 90 69 158 160 158c42 0 64 -9 109 -42h105zM296 245c0 78 -43 136 -101 136s-101 -58 -101 -136c0 -80 39 -129 100 -129c63 0 102 48 102 129zM70 -178c0 -57 43 -95 108 -95c100 0 207 78 207 164
c0 43 -25 70 -66 70c-27 0 -149 -11 -193 -11c-38 -37 -56 -80 -56 -128z" />
    <glyph glyph-name="h" unicode="h" horiz-adv-x="528" 
d="M108 583c0 28 -2 37 -39 56l98 43v-331c73 33 109 46 152 46c66 0 113 -44 113 -98v-260c0 -14 3 -16 19 -19l40 -7c8 -1 12 -3 12 -9c0 -5 -3 -8 -10 -8c-16 0 -21 4 -90 4s-75 -4 -91 -4c-6 0 -9 3 -9 8c0 6 3 8 11 9l41 7c15 3 18 5 18 19v245c0 55 -30 80 -89 80
c-33 0 -66 -10 -117 -32v-293c0 -14 3 -16 19 -19l40 -7c8 -1 12 -3 12 -9c0 -5 -3 -8 -10 -8c-16 0 -22 4 -90 4c-69 0 -75 -4 -91 -4c-7 0 -10 3 -10 8c0 6 4 8 12 9l40 7c16 3 19 5 19 19v544z" />
    <glyph glyph-name="i" unicode="i" horiz-adv-x="262" 
d="M167 39c0 -14 3 -16 19 -19l40 -7c8 -1 12 -3 12 -9c0 -5 -3 -8 -10 -8c-16 0 -22 4 -90 4c-69 0 -75 -4 -91 -4c-7 0 -10 3 -10 8c0 6 4 8 12 9l40 7c16 3 19 5 19 19v241c0 41 -7 45 -45 55c-6 2 -9 2 -9 7c0 4 3 6 13 7c39 5 66 15 100 51v-361zM102 552
c0 20 10 37 36 37c25 0 35 -17 35 -37s-10 -37 -35 -37c-26 0 -36 17 -36 37z" />
    <glyph glyph-name="j" unicode="j" horiz-adv-x="262" 
d="M108 280c0 41 -7 45 -45 55c-6 2 -9 2 -9 7c0 4 3 6 13 7c39 5 66 15 100 51v-496c0 -116 -60 -214 -121 -214c-19 0 -30 10 -30 27c0 19 13 30 37 30c13 0 25 -4 34 -4c15 0 21 24 21 83v454zM102 552c0 20 10 37 36 37c25 0 35 -17 35 -37s-10 -37 -35 -37
c-26 0 -36 17 -36 37z" />
    <glyph glyph-name="k" unicode="k" horiz-adv-x="497" 
d="M167 213v-174c0 -14 3 -16 19 -19l40 -7c8 -1 12 -3 12 -9c0 -5 -3 -8 -10 -8c-16 0 -22 4 -90 4c-69 0 -75 -4 -91 -4c-7 0 -10 3 -10 8c0 6 4 8 12 9l40 7c16 3 19 5 19 19v544c0 28 -2 37 -39 56l98 43v-458l139 120c12 10 16 15 16 20c0 13 -30 4 -30 17
c0 5 1 9 12 9c5 0 37 -4 59 -4c26 0 47 4 65 4c5 0 9 -2 9 -9c0 -6 -5 -8 -34 -12c-22 -3 -33 -8 -52 -22l-142 -100l211 -211c14 -14 21 -16 37 -19l23 -4c8 -1 12 -3 12 -9c0 -5 -3 -8 -10 -8c-15 0 -25 4 -94 4s-79 -4 -94 -4c-7 0 -10 3 -10 8c0 6 4 8 12 9l35 6
c13 2 15 9 3 21z" />
    <glyph glyph-name="l" unicode="l" horiz-adv-x="262" 
d="M167 39c0 -14 3 -16 19 -19l40 -7c8 -1 12 -3 12 -9c0 -5 -3 -8 -10 -8c-16 0 -22 4 -90 4c-69 0 -75 -4 -91 -4c-7 0 -10 3 -10 8c0 6 4 8 12 9l40 7c16 3 19 5 19 19v544c0 28 -2 37 -39 56l98 43v-643z" />
    <glyph glyph-name="m" unicode="m" horiz-adv-x="783" 
d="M167 39c0 -14 3 -16 19 -19l40 -7c8 -1 12 -3 12 -9c0 -5 -3 -8 -10 -8c-16 0 -22 4 -90 4c-69 0 -75 -4 -91 -4c-7 0 -10 3 -10 8c0 6 4 8 12 9l40 7c16 3 19 5 19 19v241c0 41 -7 45 -45 55c-6 2 -9 2 -9 7c0 4 3 6 13 7c39 5 66 15 100 51v-49c54 26 101 46 150 46
c42 0 77 -16 99 -52c76 39 116 52 159 52c63 0 113 -33 113 -102v-256c0 -14 3 -16 18 -19l41 -7c7 -1 11 -3 11 -9c0 -5 -3 -8 -9 -8c-16 0 -22 4 -91 4s-75 -4 -90 -4c-7 0 -10 3 -10 8c0 6 4 8 12 9l40 7c16 3 19 5 19 19v245c0 54 -30 80 -88 80c-34 0 -67 -10 -120 -35
c5 -14 6 -23 6 -48v-242c0 -14 3 -16 19 -19l40 -7c8 -1 12 -3 12 -9c0 -5 -3 -8 -10 -8c-16 0 -21 4 -90 4s-75 -4 -91 -4c-6 0 -9 3 -9 8c0 6 4 8 11 9l41 7c15 3 18 5 18 19v245c0 54 -29 80 -87 80c-31 0 -56 -6 -114 -32v-293z" />
    <glyph glyph-name="n" unicode="n" horiz-adv-x="528" 
d="M108 280c0 41 -7 45 -45 55c-6 2 -9 2 -9 7c0 4 3 6 13 7c39 5 66 15 100 51v-49c73 33 109 46 152 46c66 0 113 -44 113 -98v-260c0 -14 3 -16 19 -19l40 -7c8 -1 12 -3 12 -9c0 -5 -3 -8 -10 -8c-16 0 -21 4 -90 4s-75 -4 -91 -4c-6 0 -9 3 -9 8c0 6 3 8 11 9l41 7
c15 3 18 5 18 19v245c0 55 -30 80 -89 80c-33 0 -66 -10 -117 -32v-293c0 -14 3 -16 19 -19l40 -7c8 -1 12 -3 12 -9c0 -5 -3 -8 -10 -8c-16 0 -22 4 -90 4c-69 0 -75 -4 -91 -4c-7 0 -10 3 -10 8c0 6 4 8 12 9l40 7c16 3 19 5 19 19v241z" />
    <glyph glyph-name="o" unicode="o" horiz-adv-x="458" 
d="M231 -11c-116 0 -194 82 -194 205c0 122 80 203 202 203c116 0 194 -82 194 -200c0 -126 -77 -208 -202 -208zM369 190c0 117 -52 191 -135 191c-85 0 -134 -68 -134 -184c0 -113 54 -192 132 -192c90 0 137 65 137 185z" />
    <glyph glyph-name="p" unicode="p" horiz-adv-x="500" 
d="M267 12c87 0 145 75 145 189c0 100 -53 161 -138 161c-31 0 -61 -8 -107 -32v-285c40 -24 72 -33 100 -33zM108 280c0 41 -7 45 -45 55c-6 2 -9 2 -9 7c0 4 3 6 13 7c39 5 66 15 100 51v-53c68 36 110 50 148 50c94 0 160 -75 160 -179c0 -124 -97 -229 -210 -229
c-38 0 -66 7 -98 26v-277c0 -15 3 -17 19 -20l40 -7c8 -1 12 -3 12 -9c0 -5 -3 -8 -10 -8c-16 0 -22 4 -90 4c-69 0 -75 -4 -91 -4c-7 0 -10 3 -10 8c0 6 4 8 12 9l40 7c16 3 19 5 19 20v542z" />
    <glyph glyph-name="q" unicode="q" horiz-adv-x="532" 
d="M249 375c-88 0 -150 -72 -150 -176c0 -101 71 -174 168 -174c37 0 67 7 111 28v271c-35 34 -84 51 -129 51zM378 35c-69 -33 -113 -46 -158 -46c-108 0 -183 78 -183 188c0 124 99 220 224 220c43 0 86 -8 139 -35l37 38v-662c0 -15 3 -17 19 -20l40 -7c8 -1 12 -3 12 -9
c0 -5 -3 -8 -10 -8c-16 0 -22 4 -90 4c-69 0 -75 -4 -91 -4c-7 0 -10 3 -10 8c0 6 4 8 12 9l41 7c15 3 18 5 18 20v297z" />
    <glyph glyph-name="r" unicode="r" horiz-adv-x="339" 
d="M167 39c0 -14 3 -16 19 -19l40 -7c8 -1 12 -3 12 -9c0 -5 -3 -8 -10 -8c-16 0 -22 4 -90 4c-69 0 -75 -4 -91 -4c-7 0 -10 3 -10 8c0 6 4 8 12 9l40 7c16 3 19 5 19 19v241c0 41 -7 45 -45 55c-6 2 -9 2 -9 7c0 4 3 6 13 7c39 5 66 15 100 51v-65c53 41 80 62 116 62
c30 0 51 -15 51 -36c0 -19 -13 -32 -30 -32c-32 0 -48 23 -75 23c-18 0 -33 -9 -62 -33v-280z" />
    <glyph glyph-name="s" unicode="s" horiz-adv-x="294" 
d="M243 322c1 -7 -1 -10 -5 -10c-5 0 -6 3 -9 12c-11 33 -35 54 -75 54s-68 -22 -68 -56c0 -22 7 -38 79 -87c77 -53 104 -77 104 -123c0 -71 -61 -123 -139 -123c-28 0 -49 4 -85 20l-7 74c-1 6 -1 14 5 14c4 0 6 -2 7 -12c7 -51 38 -77 86 -77c46 0 81 34 81 79
c0 30 -13 47 -62 82c-79 57 -108 81 -108 129c0 57 50 99 116 99c28 0 48 -4 73 -13z" />
    <glyph glyph-name="t" unicode="t" horiz-adv-x="291" 
d="M278 361h-136v-286c0 -39 20 -58 59 -58c28 0 56 10 81 28l6 -11c-36 -30 -81 -45 -120 -45c-66 0 -85 36 -85 82v290h-44c45 26 76 52 103 85v-60h136v-25z" />
    <glyph glyph-name="u" unicode="u" horiz-adv-x="508" 
d="M357 345c0 18 -2 21 -17 22l-26 2c-14 1 -18 3 -18 9s3 8 12 8h108v-337c0 -17 1 -21 14 -21c14 0 34 2 43 2c5 0 10 -2 10 -7s-2 -8 -9 -9c-33 -3 -84 -17 -117 -30v58c-88 -50 -115 -53 -146 -53c-55 0 -113 35 -113 95v261c0 18 -2 21 -16 22l-26 2c-15 1 -19 3 -19 9
s3 8 13 8h107v-285c0 -61 58 -73 91 -73c30 0 58 7 109 34v283z" />
    <glyph glyph-name="v" unicode="v" horiz-adv-x="463" 
d="M399 340l-155 -335c-6 -13 -5 -22 -12 -22c-5 0 -8 7 -11 14l-134 338c-11 28 -15 30 -33 33l-29 5c-8 1 -12 3 -12 9c0 5 3 8 10 8c15 0 21 -4 90 -4s75 4 90 4c7 0 10 -3 10 -8c0 -6 -4 -8 -12 -9l-40 -7c-17 -3 -19 -11 -11 -33l104 -268l109 258c13 30 9 41 -15 45
l-29 5c-8 1 -12 3 -12 9c0 5 3 8 10 8c16 0 32 -4 68 -4c27 0 52 4 68 4c7 0 10 -3 10 -8c0 -6 -4 -8 -11 -9c-37 -5 -43 -12 -53 -33z" />
    <glyph glyph-name="w" unicode="w" horiz-adv-x="705" 
d="M361 257l-117 -252c-5 -12 -5 -22 -12 -22c-5 0 -8 7 -11 14l-134 338c-11 28 -15 30 -33 33l-29 5c-8 1 -12 3 -12 9c0 5 3 8 10 8c15 0 21 -4 90 -4s75 4 90 4c7 0 10 -3 10 -8c0 -6 -4 -8 -12 -9l-40 -7c-17 -3 -19 -11 -11 -33l104 -268l95 223l-19 47
c-11 28 -16 30 -33 33l-30 5c-8 1 -12 3 -12 9c0 5 3 8 10 8c16 0 22 -4 91 -4c68 0 74 4 90 4c7 0 10 -3 10 -8c0 -6 -4 -8 -12 -9l-40 -7c-17 -3 -19 -11 -11 -33l104 -268l109 258c13 30 9 41 -16 45l-28 5c-8 1 -12 3 -12 9c0 5 3 8 10 8c16 0 31 -4 68 -4
c26 0 52 4 67 4c7 0 10 -3 10 -8c0 -6 -4 -8 -11 -9c-37 -5 -43 -12 -53 -33l-155 -335c-6 -13 -5 -22 -12 -22c-4 0 -7 7 -10 14z" />
    <glyph glyph-name="x" unicode="x" horiz-adv-x="417" 
d="M49 373c-9 1 -12 3 -12 9c0 5 3 8 10 8c16 0 34 -4 78 -4c42 0 62 4 77 4c7 0 10 -3 10 -8c0 -6 -3 -8 -22 -11c-30 -4 -31 -17 -20 -34l59 -96l61 95c16 25 5 33 -24 37c-8 1 -12 3 -12 9c0 5 3 8 10 8c16 0 35 -4 70 -4c31 0 44 4 60 4c7 0 10 -3 10 -8
c0 -6 -4 -8 -12 -9l-29 -5c-21 -4 -25 -8 -35 -21l-90 -119l119 -190c10 -17 21 -21 48 -25c8 -1 12 -3 12 -9c0 -5 -3 -8 -10 -8c-16 0 -37 4 -84 4c-39 0 -68 -4 -83 -4c-7 0 -10 3 -10 8c0 6 4 8 12 9l28 5c18 3 20 12 5 37l-74 119l-76 -119c-14 -22 -12 -32 5 -35
l40 -7c8 -1 12 -3 12 -9c0 -5 -3 -8 -10 -8c-16 0 -41 4 -80 4c-38 0 -54 -4 -69 -4c-7 0 -10 3 -10 8c0 6 4 8 12 9l23 4c18 3 26 7 44 32l101 140l-95 152c-15 23 -20 27 -49 32z" />
    <glyph glyph-name="y" unicode="y" horiz-adv-x="448" 
d="M397 352l-180 -463c-80 -206 -105 -199 -128 -199c-22 0 -38 14 -38 32c0 19 15 32 35 32c17 0 27 -8 35 -8c9 0 23 8 114 234l-163 363c-10 23 -20 26 -42 29c-14 2 -17 4 -17 10c0 5 3 8 10 8c15 0 27 -4 80 -4c61 0 65 4 81 4c7 0 10 -3 10 -8c0 -6 -3 -7 -12 -9
l-29 -5c-17 -3 -24 -7 -14 -30l124 -283l96 283c6 19 4 26 -13 29l-36 6c-7 1 -11 3 -11 9c0 5 3 8 9 8c16 0 31 -4 65 -4s49 4 65 4c7 0 10 -3 10 -8c0 -6 -4 -8 -12 -9c-31 -5 -34 -8 -39 -21z" />
    <glyph glyph-name="z" unicode="z" horiz-adv-x="430" 
d="M126 18l235 8c26 41 26 71 37 71c4 0 10 -2 7 -13l-21 -89c-18 3 -46 5 -75 5h-204c-24 0 -53 -2 -68 -5l272 376l-147 -7c-30 -1 -37 -3 -48 -18l-30 -41c-3 -6 -7 -9 -11 -9c-6 0 -8 6 -3 14l45 81c16 -2 39 -5 70 -5h139c20 0 58 1 72 4z" />
    <glyph glyph-name="braceleft" unicode="{" horiz-adv-x="383" 
d="M37 248c121 8 137 52 137 138v114c0 133 64 156 185 156v-23c-100 0 -122 -38 -122 -117v-94c0 -125 -31 -167 -143 -188c112 -22 143 -63 143 -189v-93c0 -80 22 -117 122 -117v-24c-121 0 -185 24 -185 157v114c0 86 -16 129 -137 138v28z" />
    <glyph glyph-name="bar" unicode="|" horiz-adv-x="100" 
d="M76 656v-837h-39v837h39z" />
    <glyph glyph-name="braceright" unicode="}" horiz-adv-x="383" 
d="M359 248v-28c-121 -9 -137 -52 -137 -138v-114c0 -133 -64 -157 -185 -157v24c100 0 122 37 122 117v93c0 126 31 167 143 189c-112 21 -143 63 -143 188v94c0 79 -22 117 -122 117v23c121 0 185 -23 185 -156v-114c0 -86 16 -130 137 -138z" />
    <glyph glyph-name="asciitilde" unicode="~" horiz-adv-x="285" 
d="M37 422c11 59 33 89 66 89c32 0 82 -30 104 -30c19 0 30 12 37 43h16c-10 -59 -32 -89 -66 -89c-31 0 -81 30 -104 30c-18 0 -29 -12 -36 -43h-17z" />
    <glyph glyph-name="exclamdown" unicode="&#xa1;" horiz-adv-x="164" 
d="M139 346c0 -29 -22 -51 -51 -51c-28 0 -51 22 -51 51c0 28 23 51 51 51c29 0 51 -23 51 -51zM88 -210c-27 0 -42 16 -42 56c0 46 28 265 28 336c0 14 4 22 14 22s15 -8 15 -22c0 -70 28 -290 28 -336c0 -40 -15 -56 -43 -56z" />
    <glyph glyph-name="cent" unicode="&#xa2;" horiz-adv-x="398" 
d="M223 107h-9c-105 0 -177 76 -177 190c0 102 84 196 186 215v97h23v-94h12c64 0 115 -36 115 -51s-15 -36 -30 -36c-20 0 -39 57 -97 61v-340c36 0 72 12 108 49l11 -13c-41 -44 -73 -68 -119 -76v-122h-23v120zM223 488c-73 -9 -126 -82 -126 -174
c0 -86 53 -152 126 -163v337z" />
    <glyph glyph-name="sterling" unicode="&#xa3;" horiz-adv-x="430" 
d="M131 127c-22 0 -38 -24 -38 -58s19 -57 46 -57c22 0 43 16 63 53c-29 45 -49 62 -71 62zM194 264h-99v24h84c-28 42 -51 84 -51 144c0 94 64 169 141 169c49 0 87 -24 87 -57c0 -18 -10 -29 -26 -29c-23 0 -25 19 -27 31c-2 13 -20 35 -53 35c-43 0 -77 -47 -77 -106
c0 -66 47 -126 77 -187h90v-24h-80c20 -52 22 -86 -15 -172c53 -42 65 -51 89 -51c26 0 48 28 48 57c0 40 -49 28 -49 66c0 21 14 31 29 31c26 0 44 -26 44 -63c0 -62 -53 -143 -104 -143c-26 0 -46 11 -86 59c-35 -40 -68 -59 -104 -59c-43 0 -75 32 -75 76
c0 47 37 83 84 83c27 0 54 -11 104 -45c27 53 -2 116 -31 161z" />
    <glyph glyph-name="fraction" unicode="&#x2044;" horiz-adv-x="646" 
d="M550 598l-182 -290v-266c0 -16 0 -19 16 -21l64 -8c5 -1 9 -3 9 -9c0 -7 -5 -8 -13 -8c-14 0 -26 4 -112 4s-98 -4 -112 -4c-8 0 -13 1 -13 8c0 6 4 8 9 9l64 8c16 2 16 5 16 21v260l-196 310c-11 18 -17 24 -34 26l-39 4c-5 1 -9 3 -9 9c0 7 5 8 12 8c14 0 26 -4 112 -4
c87 0 99 4 112 4c8 0 13 -1 13 -8c0 -6 -3 -8 -9 -9l-47 -5c-23 -2 -31 -15 -11 -46l161 -254l145 255c17 30 8 43 -20 46l-40 4c-5 1 -9 3 -9 9c0 7 5 8 13 8c14 0 37 -4 99 -4c56 0 66 4 80 4c8 0 12 -1 12 -8c0 -6 -2 -8 -8 -9l-33 -3c-19 -2 -30 -10 -50 -41zM193 737
c0 23 18 42 42 42c23 0 42 -19 42 -42c0 -24 -19 -43 -42 -43c-24 0 -42 19 -42 43zM379 737c0 23 19 42 42 42c24 0 43 -19 43 -42c0 -24 -19 -43 -43 -43c-23 0 -42 19 -42 43z" />
    <glyph glyph-name="yen" unicode="&#xa5;" horiz-adv-x="656" 
d="M555 598l-182 -290v-266c0 -16 0 -19 16 -21l64 -8c5 -1 9 -3 9 -9c0 -7 -5 -8 -13 -8c-14 0 -26 4 -112 4c-87 0 -98 -4 -112 -4c-8 0 -13 1 -13 8c0 6 4 8 9 9l64 8c16 2 16 5 16 21v260l-196 310c-11 18 -18 24 -34 26l-40 4c-4 1 -8 3 -8 9c0 7 5 8 12 8
c14 0 26 -4 112 -4c87 0 99 4 112 4c8 0 13 -1 13 -8c0 -6 -3 -8 -9 -9l-47 -5c-23 -2 -31 -15 -11 -46l160 -254l146 255c17 30 8 43 -20 46l-40 4c-5 1 -9 3 -9 9c0 7 5 8 13 8c14 0 37 -4 99 -4c56 0 66 4 80 4c7 0 12 -1 12 -8c0 -6 -3 -8 -8 -9l-33 -3
c-20 -2 -30 -10 -50 -41z" />
    <glyph glyph-name="florin" unicode="&#x192;" horiz-adv-x="353" 
d="M237 355c-10 0 -15 -5 -16 -15c0 0 -17 -191 -27 -283c-22 -189 -76 -275 -172 -275c-50 0 -86 26 -86 64c0 24 15 40 38 40c69 0 31 -82 64 -82c36 0 81 19 94 321c3 74 9 156 14 203c2 20 3 27 -8 27h-96l3 31h92c11 0 15 4 17 18l4 28c25 178 83 250 180 250
c46 0 77 -23 77 -57c0 -26 -16 -43 -45 -43c-57 0 -32 68 -72 68c-38 0 -56 -56 -66 -165l-8 -87c-1 -11 2 -12 13 -12h91l-3 -31h-88z" />
    <glyph glyph-name="section" unicode="&#xa7;" horiz-adv-x="389" 
d="M323 -52c0 -67 -57 -115 -136 -115c-74 0 -130 42 -130 98c0 29 17 48 43 48c24 0 37 -14 37 -35c0 -35 -32 -43 -32 -61c0 -20 37 -36 81 -36c60 0 95 30 95 83c0 40 -19 68 -75 117l-84 74c-59 52 -85 95 -85 143c0 64 46 111 116 111h19c-57 43 -93 94 -93 146
c0 67 54 116 128 116c69 0 120 -42 120 -97c0 -30 -16 -50 -42 -50c-23 0 -38 15 -38 36c0 26 32 41 32 58c0 21 -36 39 -70 39c-53 0 -89 -35 -89 -86c0 -38 18 -66 79 -118l83 -71c58 -50 82 -93 82 -141c0 -70 -49 -116 -124 -116h-11c60 -44 94 -92 94 -143zM249 106
c48 0 83 34 83 80c0 73 -131 177 -174 177c-48 0 -90 -30 -90 -79c0 -59 107 -178 181 -178z" />
    <glyph glyph-name="currency" unicode="&#xa4;" horiz-adv-x="572" 
d="M137 525l-100 99l32 31l99 -99c71 58 179 57 248 0l99 100l31 -31l-99 -99c57 -70 60 -174 1 -249l99 -99l-31 -32l-99 100c-73 -57 -179 -58 -249 0l-99 -100l-32 32l100 99c-58 73 -57 176 0 248zM139 402c0 -86 68 -155 154 -155c85 0 155 69 155 155
c0 83 -69 154 -152 154c-88 0 -157 -68 -157 -154z" />
    <glyph glyph-name="quotesingle" unicode="'" horiz-adv-x="115" 
d="M56 503l-18 115c-4 23 6 37 26 37c19 0 28 -14 25 -37l-17 -115h-16z" />
    <glyph glyph-name="quotedblleft" unicode="&#x201c;" horiz-adv-x="257" 
d="M125 513c0 -21 -17 -37 -40 -37c-27 0 -48 24 -48 63c0 64 61 116 90 116c5 0 8 -2 8 -7c0 -7 -9 -6 -20 -12c-29 -15 -48 -49 -37 -89c23 8 47 -4 47 -34zM223 513c0 -21 -17 -37 -39 -37c-28 0 -48 24 -48 63c0 64 60 116 89 116c5 0 8 -2 8 -7c0 -7 -9 -7 -20 -12
c-28 -16 -48 -49 -37 -89c23 8 47 -4 47 -34z" />
    <glyph glyph-name="guillemotleft" unicode="&#xab;" horiz-adv-x="388" 
d="M115 216l69 -91c19 -25 27 -40 27 -46c0 -7 -4 -10 -10 -10c-16 0 -28 30 -88 81c-58 49 -76 57 -76 66s18 17 76 66c60 51 72 81 88 81c6 0 10 -2 10 -9s-8 -22 -27 -47zM267 216l69 -91c19 -25 27 -40 27 -46c0 -7 -3 -10 -9 -10c-17 0 -29 30 -89 81
c-58 49 -75 57 -75 66s17 17 75 66c60 51 72 81 89 81c6 0 9 -2 9 -9s-8 -22 -27 -47z" />
    <glyph glyph-name="endash" unicode="&#x2013;" horiz-adv-x="808" 
d="M784 212v-48h-747v48h747z" />
    <glyph glyph-name="dagger" unicode="&#x2020;" horiz-adv-x="447" 
d="M237 -171h-14c6 142 -11 298 -40 416c40 61 40 119 40 178h-17c-58 0 -93 -29 -126 -29c-23 0 -43 16 -43 37c0 22 20 38 43 38c33 0 68 -30 126 -30h17v27c0 78 -34 120 -34 147c0 25 17 42 41 42s41 -17 41 -42c0 -27 -34 -69 -34 -147v-27h16c58 0 94 30 127 30
c23 0 42 -16 42 -38c0 -21 -19 -37 -42 -37c-33 0 -69 29 -127 29h-16c0 -59 0 -117 40 -178c-29 -118 -46 -274 -40 -416z" />
    <glyph glyph-name="daggerdbl" unicode="&#x2021;" horiz-adv-x="447" 
d="M277 245c-40 -61 -40 -120 -40 -179h16c58 0 94 29 127 29c23 0 42 -15 42 -37s-19 -37 -42 -37c-33 0 -69 29 -127 29h-16v-26c0 -79 34 -121 34 -148c0 -24 -17 -42 -41 -42s-41 18 -41 42c0 27 34 69 34 148v26h-17c-58 0 -93 -29 -126 -29c-23 0 -43 15 -43 37
s20 37 43 37c33 0 68 -29 126 -29h17c0 59 0 118 -40 179c40 61 40 119 40 178h-17c-58 0 -93 -29 -126 -29c-23 0 -43 16 -43 37c0 22 20 38 43 38c33 0 68 -30 126 -30h17v27c0 78 -34 120 -34 147c0 25 17 42 41 42s41 -17 41 -42c0 -27 -34 -69 -34 -147v-27h16
c58 0 94 30 127 30c23 0 42 -16 42 -38c0 -21 -19 -37 -42 -37c-33 0 -69 29 -127 29h-16c0 -59 0 -117 40 -178z" />
    <glyph glyph-name="periodcentered" unicode="&#xb7;" horiz-adv-x="219" 
d="M44 -107c33 -15 57 -19 76 -19c24 0 38 11 38 34c0 22 -22 39 -61 28v61h22v-39c46 10 75 -9 75 -48c0 -36 -27 -55 -66 -55c-26 0 -57 6 -91 21z" />
    <glyph glyph-name="paragraph" unicode="&#xb6;" horiz-adv-x="424" 
d="M400 631h-54v-631h-36v631h-77v-631h-36v351c-101 6 -160 66 -160 156c0 94 67 156 167 156h196v-32z" />
    <glyph glyph-name="bullet" unicode="&#x2022;" horiz-adv-x="346" 
d="M37 365c0 79 63 142 142 142c78 0 142 -63 142 -142c0 -78 -64 -141 -142 -141c-79 0 -142 63 -142 141z" />
    <glyph glyph-name="quotedblright" unicode="&#x201d;" horiz-adv-x="257" 
d="M145 619c0 20 17 36 40 36c27 0 48 -23 48 -63c0 -64 -61 -116 -90 -116c-4 0 -7 2 -7 7c0 7 8 7 19 13c29 16 48 48 38 88c-24 -7 -48 4 -48 35zM47 619c0 20 17 36 39 36c28 0 49 -23 49 -63c0 -64 -61 -116 -90 -116c-5 0 -8 2 -8 7c0 7 9 7 20 13c28 16 48 48 37 88
c-23 -7 -47 4 -47 35z" />
    <glyph glyph-name="guillemotright" unicode="&#xbb;" horiz-adv-x="388" 
d="M286 216l-69 91c-19 25 -27 40 -27 47s4 9 9 9c17 0 29 -30 89 -81c58 -49 75 -57 75 -66s-17 -17 -75 -66c-60 -51 -72 -81 -89 -81c-5 0 -9 3 -9 10c0 6 8 21 27 46zM134 216l-69 91c-19 25 -28 40 -28 47s4 9 10 9c17 0 29 -30 89 -81c58 -49 75 -57 75 -66
s-17 -17 -75 -66c-60 -51 -72 -81 -89 -81c-6 0 -10 3 -10 10c0 6 9 21 28 46z" />
    <glyph glyph-name="ellipsis" unicode="&#x2026;" horiz-adv-x="382" 
d="M37 32c0 23 19 42 42 42c22 0 41 -19 41 -42c0 -22 -19 -41 -41 -41c-23 0 -42 19 -42 41zM156 32c0 23 19 42 41 42c23 0 42 -19 42 -42c0 -22 -19 -41 -42 -41c-22 0 -41 19 -41 41zM275 32c0 23 19 42 41 42c23 0 42 -19 42 -42c0 -22 -19 -41 -42 -41
c-22 0 -41 19 -41 41z" />
    <glyph glyph-name="perthousand" unicode="&#x2030;" horiz-adv-x="934" 
d="M49 0l473 589h40l-473 -589h-40zM37 471c0 78 57 127 128 127s128 -49 128 -127c0 -79 -57 -128 -128 -128s-128 49 -128 128zM84 471c0 -67 37 -113 81 -113s81 46 81 113c0 66 -37 112 -81 112s-81 -46 -81 -112zM318 119c0 78 57 128 128 128s128 -50 128 -128
c0 -79 -57 -128 -128 -128s-128 49 -128 128zM365 119c0 -67 37 -113 81 -113s81 46 81 113s-37 113 -81 113s-81 -46 -81 -113zM654 119c0 78 57 128 128 128s128 -50 128 -128c0 -79 -57 -128 -128 -128s-128 49 -128 128zM701 119c0 -67 37 -113 81 -113s80 46 80 113
s-36 113 -80 113s-81 -46 -81 -113z" />
    <glyph glyph-name="questiondown" unicode="&#xbf;" horiz-adv-x="285" 
d="M220 124c0 -55 -138 -72 -138 -202c0 -60 34 -106 79 -106c26 0 33 26 65 26c17 0 28 -9 28 -25c0 -17 -17 -29 -47 -29c-101 0 -170 65 -170 187c0 98 164 160 164 193v38c0 16 19 16 19 0v-82zM260 346c0 -29 -22 -51 -51 -51c-28 0 -51 22 -51 51c0 28 23 51 51 51
c29 0 51 -23 51 -51z" />
    <glyph glyph-name="grave" unicode="`" horiz-adv-x="238" 
d="M53 553c-27 24 -16 53 9 53c11 0 21 -6 35 -23l116 -148h-23z" />
    <glyph glyph-name="acute" unicode="&#xb4;" horiz-adv-x="238" 
d="M197 553l-136 -118h-24l116 148c14 17 25 23 36 23c24 0 36 -29 8 -53z" />
    <glyph glyph-name="circumflex" unicode="&#x2c6;" horiz-adv-x="292" 
d="M132 844h40l95 -150h-20l-95 100l-95 -100h-20z" />
    <glyph glyph-name="tilde" unicode="&#x2dc;" horiz-adv-x="285" 
d="M37 682c11 59 33 88 66 88c32 0 82 -29 104 -29c19 0 30 11 37 42h16c-10 -59 -32 -89 -66 -89c-31 0 -81 30 -104 30c-18 0 -29 -12 -36 -42h-17z" />
    <glyph glyph-name="dieresis" unicode="&#xa8;" horiz-adv-x="333" 
d="M37 477c0 24 19 43 43 43c23 0 42 -19 42 -43c0 -23 -19 -42 -42 -42c-24 0 -43 19 -43 42zM224 477c0 24 19 43 42 43c24 0 42 -19 42 -43c0 -23 -18 -42 -42 -42c-23 0 -42 19 -42 42z" />
    <glyph glyph-name="ring" unicode="&#x2da;" horiz-adv-x="197" 
d="M29 510c0 40 34 73 75 73c40 0 74 -33 74 -73c0 -41 -34 -75 -74 -75c-41 0 -75 34 -75 75zM66 510c0 -23 16 -38 38 -38c21 0 37 15 37 38c0 20 -16 37 -37 37c-22 0 -38 -17 -38 -37z" />
    <glyph glyph-name="emdash" unicode="&#x2014;" horiz-adv-x="886" 
d="M861 212v-48h-824v48h824z" />
    <glyph glyph-name="AE" unicode="&#xc6;" horiz-adv-x="1017" 
d="M584 579l-173 -229h173v229zM128 41l446 554c17 22 13 38 -13 41l-56 6c-5 1 -9 3 -9 9c0 7 5 8 13 8c14 0 25 -4 112 -4c86 0 259 3 317 7l36 -95c4 -10 1 -18 -4 -18c-6 0 -10 3 -15 13l-27 48c-9 16 -8 17 -271 25v-285l217 11c15 1 18 2 20 18l6 46c1 7 4 10 9 10
c7 0 8 -5 8 -13c0 -16 -4 -41 -4 -81c0 -39 4 -65 4 -82c0 -8 -1 -12 -8 -12c-5 0 -8 3 -9 9l-6 47c-2 15 -5 17 -20 18l-217 11v-309c269 5 280 12 289 31l26 57c6 12 7 14 14 14c6 0 7 -7 4 -18l-34 -115c-47 3 -267 8 -335 8c-87 0 -98 -4 -112 -4c-8 0 -13 1 -13 8
c0 6 4 8 9 9l64 8c15 2 15 5 15 21v288h-188l-213 -282c-15 -20 -9 -27 6 -29l48 -6c5 -1 9 -3 9 -9c0 -7 -5 -8 -13 -8c-14 0 -40 4 -92 4s-77 -4 -91 -4c-8 0 -13 1 -13 8c0 6 4 8 9 9l40 5c21 3 29 6 42 23z" />
    <glyph glyph-name="ordfeminine" unicode="&#xaa;" horiz-adv-x="299" 
d="M156 655c52 0 75 -18 75 -64v-169c0 -19 7 -28 22 -28c8 0 21 7 21 -2s-25 -14 -41 -14c-31 0 -44 10 -48 34c-50 -27 -71 -35 -92 -35c-32 0 -56 21 -56 58c0 24 5 34 46 51l101 43v61c0 29 -19 47 -50 47c-36 0 -56 -17 -61 -51l-34 -5c7 42 59 74 117 74zM120 486
c-33 -17 -37 -21 -37 -42c0 -26 13 -43 33 -43c18 0 39 7 68 20v98z" />
    <glyph glyph-name="Oslash" unicode="&#xd8;" horiz-adv-x="724" 
d="M528 576l-329 -490c42 -46 99 -74 168 -74c195 0 255 202 255 312c0 105 -37 195 -94 252zM178 113l325 484c-38 30 -85 46 -136 46c-144 0 -251 -136 -251 -319c0 -78 22 -154 62 -211zM146 67c-68 62 -109 151 -109 258c0 194 144 342 331 342c57 0 110 -14 157 -38
l53 79h39l-65 -96c90 -60 147 -166 147 -293c0 -173 -126 -331 -331 -331c-75 0 -142 22 -196 59l-61 -91h-39z" />
    <glyph glyph-name="OE" unicode="&#x152;" horiz-adv-x="953" 
d="M367 643c-144 0 -251 -135 -251 -318c0 -182 106 -313 251 -313c86 0 154 27 154 98v421c0 69 -61 112 -154 112zM553 0c-93 0 -150 -12 -188 -12c-190 0 -328 143 -328 338c0 194 144 341 330 341c71 0 91 -12 190 -12c86 0 259 3 317 7l37 -95c4 -10 1 -18 -5 -18
s-10 3 -15 13l-27 48c-9 16 -7 17 -271 25v-285l217 11c15 1 18 2 20 18l6 46c1 7 4 10 9 10c7 0 8 -5 8 -13c0 -16 -4 -41 -4 -81c0 -39 4 -65 4 -82c0 -8 -1 -12 -8 -12c-5 0 -8 3 -9 9l-6 47c-2 15 -5 17 -20 18l-217 11v-309c269 5 280 12 289 31l27 57c6 12 7 14 13 14
s8 -6 4 -18l-34 -115c-47 3 -265 8 -339 8z" />
    <glyph glyph-name="ordmasculine" unicode="&#xba;" horiz-adv-x="376" 
d="M37 516c0 91 71 139 157 139c87 0 158 -48 158 -139c0 -92 -71 -140 -158 -140c-86 0 -157 48 -157 140zM87 516c0 -96 49 -129 107 -129c59 0 108 33 108 129c0 95 -49 128 -108 128c-58 0 -107 -33 -107 -128z" />
    <glyph glyph-name="ae" unicode="&#xe6;" horiz-adv-x="575" 
d="M412 375c-49 0 -88 -29 -114 -86l184 6c-6 55 -28 80 -70 80zM129 144c-30 -17 -39 -31 -39 -61c0 -40 21 -59 47 -59c22 0 50 9 85 31v141zM280 325c32 42 83 72 137 72c68 0 124 -50 124 -125h-249c-6 -15 -11 -34 -11 -58c0 -104 70 -183 159 -183c36 0 67 12 98 44
l12 -14c-44 -46 -100 -72 -154 -72c-63 0 -111 28 -140 76c-37 -30 -103 -76 -149 -76c-42 0 -70 30 -70 85c0 35 20 56 58 75l127 63v90c0 42 -25 67 -64 67c-44 0 -71 -24 -76 -72l-43 -9c7 63 83 109 148 109c58 0 87 -22 93 -72z" />
    <glyph glyph-name="dotlessi" unicode="&#x131;" horiz-adv-x="262" 
d="M167 39c0 -14 3 -16 19 -19l40 -7c8 -1 12 -3 12 -9c0 -5 -3 -8 -10 -8c-16 0 -22 4 -90 4c-69 0 -75 -4 -91 -4c-7 0 -10 3 -10 8c0 6 4 8 12 9l40 7c16 3 19 5 19 19v241c0 41 -7 45 -45 55c-6 2 -9 2 -9 7c0 4 3 6 13 7c39 5 66 15 100 51v-361z" />
    <glyph glyph-name="oslash" unicode="&#xf8;" horiz-adv-x="458" 
d="M334 327l-185 -285c23 -23 51 -37 83 -37c90 0 137 65 137 185c0 58 -12 105 -35 137zM136 61l183 285c-22 22 -51 35 -85 35c-85 0 -134 -68 -134 -184c0 -55 13 -102 36 -136zM112 26c-47 37 -75 94 -75 168c0 122 80 203 202 203c37 0 70 -8 98 -24l31 48h27l-39 -60
c49 -34 77 -92 77 -164c0 -126 -77 -208 -202 -208c-37 0 -72 9 -99 25l-34 -51h-26z" />
    <glyph glyph-name="oe" unicode="&#x153;" horiz-adv-x="714" 
d="M551 375c-48 0 -87 -29 -114 -86l185 6c-6 55 -29 80 -71 80zM369 190c0 117 -52 191 -135 191c-85 0 -134 -68 -134 -184c0 -113 54 -192 132 -192c90 0 137 65 137 185zM395 66c-28 -38 -79 -77 -164 -77c-116 0 -194 82 -194 205c0 122 80 203 202 203
c75 0 134 -35 167 -91c34 55 90 91 151 91c68 0 124 -50 124 -125h-250c-6 -15 -11 -35 -11 -58c0 -103 70 -183 160 -183c36 0 66 12 98 44l12 -14c-45 -46 -101 -72 -155 -72c-75 0 -118 39 -140 77z" />
    <glyph glyph-name="germandbls" unicode="&#xdf;" horiz-adv-x="526" 
d="M108 374h-43c-9 0 -13 1 -13 7s4 7 13 11l25 10c15 6 17 8 18 23l3 34c13 145 78 223 188 223c97 0 166 -59 166 -150c0 -140 -169 -68 -169 -157c0 -91 205 -91 205 -238c0 -89 -61 -148 -150 -148c-41 0 -75 11 -111 36v94c0 18 3 23 10 23c8 0 11 -4 15 -26
c14 -79 40 -110 91 -110c55 0 89 37 89 117c0 110 -204 119 -204 234c0 120 160 37 160 188c0 74 -40 118 -108 118c-86 0 -126 -66 -126 -208v-455h-29c-67 0 -75 -4 -91 -4c-7 0 -10 3 -10 8c0 6 4 8 12 9l40 7c16 3 19 5 19 19v335z" />
    <glyph glyph-name="logicalnot" unicode="&#xac;" horiz-adv-x="637" 
d="M612 386v-241h-48v193h-527v48h575z" />
    <glyph glyph-name="mu" unicode="&#xb5;" horiz-adv-x="570" 
d="M70 -188c-20 0 -33 12 -33 33c0 30 39 154 73 313l49 228h58l-48 -224c-16 -75 11 -129 70 -129s103 52 122 136l50 217h58l-52 -232c-19 -86 -8 -116 26 -116c32 0 54 24 71 73c8 25 13 31 21 31c6 0 10 -5 10 -14c0 -34 -35 -139 -117 -139c-46 0 -71 30 -67 92
c-23 -58 -67 -92 -123 -92c-58 0 -92 29 -100 92c-36 -193 -16 -269 -68 -269z" />
    <glyph glyph-name="trademark" unicode="&#x2122;" horiz-adv-x="631" 
d="M252 655l5 -83h-11c-6 52 -25 72 -66 72h-12v-204c0 -17 8 -25 23 -26l15 -1v-12h-118v12l16 1c13 1 22 9 22 26v204h-12c-41 0 -59 -20 -65 -72h-12l5 83h210zM383 655l69 -194l74 194h80v-11l-15 -1c-14 -1 -22 -10 -22 -26v-177c0 -17 8 -25 22 -26l15 -1v-12h-112v12
l16 1c15 1 22 9 22 26v192l-87 -233h-6l-83 233v-192c0 -17 7 -25 22 -26l16 -1v-12h-95v12h15c14 0 23 9 23 26v178c0 15 -8 24 -24 25l-14 1v12h84z" />
    <glyph glyph-name="plusminus" unicode="&#xb1;" horiz-adv-x="638" 
d="M349 561v-167h264v-47h-264v-167h-47v167h-265v47h265v167h47zM613 72v-47h-576v47h576z" />
    <glyph glyph-name="divide" unicode="&#xf7;" horiz-adv-x="638" 
d="M613 316v-47h-576v47h576zM274 462c0 28 23 51 51 51c29 0 51 -23 51 -51c0 -29 -22 -51 -51 -51c-28 0 -51 22 -51 51zM274 124c0 28 23 51 51 51c29 0 51 -23 51 -51c0 -29 -22 -51 -51 -51c-28 0 -51 22 -51 51z" />
    <glyph glyph-name="degree" unicode="&#xb0;" horiz-adv-x="328" 
d="M37 549c0 74 59 133 133 133s134 -59 134 -133s-60 -132 -134 -132s-133 58 -133 132zM71 549c0 -54 44 -98 99 -98s100 44 100 98c0 55 -45 99 -100 99s-99 -44 -99 -99z" />
    <glyph glyph-name="registered" unicode="&#xae;" horiz-adv-x="449" 
d="M237 577c54 0 87 -22 87 -55c0 -29 -21 -45 -80 -56c42 -15 56 -33 62 -77c2 -19 6 -24 16 -24c14 0 20 10 21 37h11c0 -37 -14 -53 -44 -53c-28 0 -40 14 -40 54c0 43 -18 60 -65 60h-7v-69c0 -21 8 -28 37 -29v-10h-107v10c28 1 36 8 36 29v143c0 21 -8 27 -36 28v12
h109zM205 472c55 0 81 15 81 50c0 27 -23 45 -58 45c-20 0 -30 -8 -30 -21v-74h7zM37 462c0 107 87 193 194 193s193 -86 193 -193s-86 -194 -193 -194s-194 87 -194 194zM59 462c0 -96 77 -172 172 -172s172 76 172 172c0 95 -77 172 -172 172s-172 -77 -172 -172z" />
    <glyph glyph-name="copyright" unicode="&#xa9;" horiz-adv-x="449" 
d="M324 575v-89h-11c-15 55 -39 78 -80 78c-48 0 -72 -36 -72 -110c0 -68 28 -106 78 -106c33 0 56 13 80 50l10 -6c-25 -42 -53 -60 -96 -60c-65 0 -115 53 -115 121c0 69 50 123 113 123c38 0 52 -19 67 -19c9 0 15 5 17 18h9zM37 462c0 107 87 193 194 193
s193 -86 193 -193s-86 -194 -193 -194s-194 87 -194 194zM59 462c0 -96 77 -172 172 -172s172 76 172 172c0 95 -77 172 -172 172s-172 -77 -172 -172z" />
    <glyph glyph-name="Aacute" unicode="&#xc1;" horiz-adv-x="708" 
d="M65 18c15 2 20 8 34 43l248 608c3 8 6 13 11 13c9 0 9 -14 18 -36l236 -573c17 -42 27 -48 43 -51l33 -7c10 -2 15 -5 15 -10c0 -7 -3 -9 -10 -9c-19 0 -39 4 -102 4c-72 0 -92 -4 -109 -4c-7 0 -10 1 -10 8c0 8 5 9 16 10l33 4c29 4 30 15 16 49l-92 226h-216l-80 -230
c-11 -32 -8 -41 10 -43l47 -6c15 -2 17 -4 17 -10s-5 -8 -11 -8c-18 0 -49 4 -98 4c-33 0 -68 -4 -84 -4c-10 0 -12 3 -12 8c0 6 3 8 10 9zM434 317l-107 262l-90 -262h197zM502 812l-137 -118h-23l116 148c14 18 24 23 35 23c25 0 36 -29 9 -53z" />
    <glyph glyph-name="Acircumflex" unicode="&#xc2;" horiz-adv-x="708" 
d="M65 18c15 2 20 8 34 43l248 608c3 8 6 13 11 13c9 0 9 -14 18 -36l236 -573c17 -42 27 -48 43 -51l33 -7c10 -2 15 -5 15 -10c0 -7 -3 -9 -10 -9c-19 0 -39 4 -102 4c-72 0 -92 -4 -109 -4c-7 0 -10 1 -10 8c0 8 5 9 16 10l33 4c29 4 30 15 16 49l-92 226h-216l-80 -230
c-11 -32 -8 -41 10 -43l47 -6c15 -2 17 -4 17 -10s-5 -8 -11 -8c-18 0 -49 4 -98 4c-33 0 -68 -4 -84 -4c-10 0 -12 3 -12 8c0 6 3 8 10 9zM434 317l-107 262l-90 -262h197zM337 844h40l95 -150h-20l-94 100l-96 -100h-19z" />
    <glyph glyph-name="Adieresis" unicode="&#xc4;" horiz-adv-x="708" 
d="M65 18c15 2 20 8 34 43l248 608c3 8 6 13 11 13c9 0 9 -14 18 -36l236 -573c17 -42 27 -48 43 -51l33 -7c10 -2 15 -5 15 -10c0 -7 -3 -9 -10 -9c-19 0 -39 4 -102 4c-72 0 -92 -4 -109 -4c-7 0 -10 1 -10 8c0 8 5 9 16 10l33 4c29 4 30 15 16 49l-92 226h-216l-80 -230
c-11 -32 -8 -41 10 -43l47 -6c15 -2 17 -4 17 -10s-5 -8 -11 -8c-18 0 -49 4 -98 4c-33 0 -68 -4 -84 -4c-10 0 -12 3 -12 8c0 6 3 8 10 9zM434 317l-107 262l-90 -262h197zM224 737c0 23 19 42 42 42c24 0 42 -19 42 -42c0 -24 -18 -43 -42 -43c-23 0 -42 19 -42 43z
M411 737c0 23 18 42 42 42c23 0 42 -19 42 -42c0 -24 -19 -43 -42 -43c-24 0 -42 19 -42 43z" />
    <glyph glyph-name="Agrave" unicode="&#xc0;" horiz-adv-x="708" 
d="M65 18c15 2 20 8 34 43l248 608c3 8 6 13 11 13c9 0 9 -14 18 -36l236 -573c17 -42 27 -48 43 -51l33 -7c10 -2 15 -5 15 -10c0 -7 -3 -9 -10 -9c-19 0 -39 4 -102 4c-72 0 -92 -4 -109 -4c-7 0 -10 1 -10 8c0 8 5 9 16 10l33 4c29 4 30 15 16 49l-92 226h-216l-80 -230
c-11 -32 -8 -41 10 -43l47 -6c15 -2 17 -4 17 -10s-5 -8 -11 -8c-18 0 -49 4 -98 4c-33 0 -68 -4 -84 -4c-10 0 -12 3 -12 8c0 6 3 8 10 9zM434 317l-107 262l-90 -262h197zM212 812c-27 24 -16 53 9 53c11 0 21 -6 35 -23l116 -148h-23z" />
    <glyph glyph-name="Aring" unicode="&#xc5;" horiz-adv-x="708" 
d="M65 18c15 2 20 8 34 43l248 608c3 8 6 13 11 13c9 0 9 -14 18 -36l236 -573c17 -42 27 -48 43 -51l33 -7c10 -2 15 -5 15 -10c0 -7 -3 -9 -10 -9c-19 0 -39 4 -102 4c-72 0 -92 -4 -109 -4c-7 0 -10 1 -10 8c0 8 5 9 16 10l33 4c29 4 30 15 16 49l-92 226h-216l-80 -230
c-11 -32 -8 -41 10 -43l47 -6c15 -2 17 -4 17 -10s-5 -8 -11 -8c-18 0 -49 4 -98 4c-33 0 -68 -4 -84 -4c-10 0 -12 3 -12 8c0 6 3 8 10 9zM434 317l-107 262l-90 -262h197zM281 789c0 40 33 73 75 73c40 0 73 -33 73 -73c0 -41 -33 -75 -73 -75c-42 0 -75 34 -75 75z
M317 789c0 -23 16 -39 39 -39c20 0 37 16 37 39c0 20 -17 37 -37 37c-23 0 -39 -17 -39 -37z" />
    <glyph glyph-name="Atilde" unicode="&#xc3;" horiz-adv-x="708" 
d="M65 18c15 2 20 8 34 43l248 608c3 8 6 13 11 13c9 0 9 -14 18 -36l236 -573c17 -42 27 -48 43 -51l33 -7c10 -2 15 -5 15 -10c0 -7 -3 -9 -10 -9c-19 0 -39 4 -102 4c-72 0 -92 -4 -109 -4c-7 0 -10 1 -10 8c0 8 5 9 16 10l33 4c29 4 30 15 16 49l-92 226h-216l-80 -230
c-11 -32 -8 -41 10 -43l47 -6c15 -2 17 -4 17 -10s-5 -8 -11 -8c-18 0 -49 4 -98 4c-33 0 -68 -4 -84 -4c-10 0 -12 3 -12 8c0 6 3 8 10 9zM434 317l-107 262l-90 -262h197zM247 682c10 59 32 88 65 88c32 0 82 -29 105 -29c18 0 29 11 36 42h17c-11 -59 -33 -89 -66 -89
c-32 0 -82 30 -104 30c-19 0 -30 -12 -37 -42h-16z" />
    <glyph glyph-name="Ccedilla" unicode="&#xc7;" horiz-adv-x="625" 
d="M341 -12c-207 8 -304 194 -304 332c0 197 150 347 340 347c63 0 126 -9 200 -49l22 -85c2 -9 2 -17 -6 -17c-6 0 -9 2 -13 13l-22 55c-61 39 -119 59 -189 59c-149 0 -262 -138 -262 -326c0 -143 88 -302 266 -302c59 0 126 24 184 67l16 54c2 7 4 10 10 10s9 -3 8 -13
l-9 -88c-82 -41 -140 -56 -220 -57v-30c47 10 76 -9 76 -48c0 -36 -27 -55 -67 -55c-25 0 -57 6 -90 21l7 17c32 -15 57 -19 75 -19c25 0 39 11 39 34c0 22 -23 39 -61 28v52z" />
    <glyph glyph-name="Eacute" unicode="&#xc9;" horiz-adv-x="558" 
d="M198 23c270 5 280 12 289 31l27 57c6 12 7 14 14 14c5 0 6 -7 3 -18l-34 -115c-47 3 -267 8 -335 8c-86 0 -98 -4 -112 -4c-8 0 -13 1 -13 8c0 6 4 8 9 9l64 8c16 2 16 5 16 21v571c0 17 0 20 -16 22l-64 7c-5 1 -9 3 -9 9c0 7 5 8 13 8c14 0 26 -4 112 -4
c87 0 259 3 317 7l37 -95c4 -10 1 -18 -5 -18s-10 3 -15 13l-26 48c-9 16 -8 17 -272 25v-285l218 11c14 1 17 2 19 18l6 46c1 7 4 10 9 10c7 0 8 -5 8 -13c0 -16 -4 -41 -4 -81c0 -39 4 -65 4 -82c0 -8 -1 -12 -8 -12c-5 0 -8 3 -9 9l-6 47c-2 15 -5 17 -19 18l-218 11
v-309zM417 812l-136 -118h-24l116 148c14 18 25 23 36 23c24 0 36 -29 8 -53z" />
    <glyph glyph-name="Ecircumflex" unicode="&#xca;" horiz-adv-x="558" 
d="M198 23c270 5 280 12 289 31l27 57c6 12 7 14 14 14c5 0 6 -7 3 -18l-34 -115c-47 3 -267 8 -335 8c-86 0 -98 -4 -112 -4c-8 0 -13 1 -13 8c0 6 4 8 9 9l64 8c16 2 16 5 16 21v571c0 17 0 20 -16 22l-64 7c-5 1 -9 3 -9 9c0 7 5 8 13 8c14 0 26 -4 112 -4
c87 0 259 3 317 7l37 -95c4 -10 1 -18 -5 -18s-10 3 -15 13l-26 48c-9 16 -8 17 -272 25v-285l218 11c14 1 17 2 19 18l6 46c1 7 4 10 9 10c7 0 8 -5 8 -13c0 -16 -4 -41 -4 -81c0 -39 4 -65 4 -82c0 -8 -1 -12 -8 -12c-5 0 -8 3 -9 9l-6 47c-2 15 -5 17 -19 18l-218 11
v-309zM259 844h41l95 -150h-21l-94 100l-95 -100h-20z" />
    <glyph glyph-name="Edieresis" unicode="&#xcb;" horiz-adv-x="558" 
d="M198 23c270 5 280 12 289 31l27 57c6 12 7 14 14 14c5 0 6 -7 3 -18l-34 -115c-47 3 -267 8 -335 8c-86 0 -98 -4 -112 -4c-8 0 -13 1 -13 8c0 6 4 8 9 9l64 8c16 2 16 5 16 21v571c0 17 0 20 -16 22l-64 7c-5 1 -9 3 -9 9c0 7 5 8 13 8c14 0 26 -4 112 -4
c87 0 259 3 317 7l37 -95c4 -10 1 -18 -5 -18s-10 3 -15 13l-26 48c-9 16 -8 17 -272 25v-285l218 11c14 1 17 2 19 18l6 46c1 7 4 10 9 10c7 0 8 -5 8 -13c0 -16 -4 -41 -4 -81c0 -39 4 -65 4 -82c0 -8 -1 -12 -8 -12c-5 0 -8 3 -9 9l-6 47c-2 15 -5 17 -19 18l-218 11
v-309zM136 737c0 23 18 42 42 42c23 0 42 -19 42 -42c0 -24 -19 -43 -42 -43c-24 0 -42 19 -42 43zM322 737c0 23 19 42 42 42c24 0 43 -19 43 -42c0 -24 -19 -43 -43 -43c-23 0 -42 19 -42 43z" />
    <glyph glyph-name="Egrave" unicode="&#xc8;" horiz-adv-x="558" 
d="M198 23c270 5 280 12 289 31l27 57c6 12 7 14 14 14c5 0 6 -7 3 -18l-34 -115c-47 3 -267 8 -335 8c-86 0 -98 -4 -112 -4c-8 0 -13 1 -13 8c0 6 4 8 9 9l64 8c16 2 16 5 16 21v571c0 17 0 20 -16 22l-64 7c-5 1 -9 3 -9 9c0 7 5 8 13 8c14 0 26 -4 112 -4
c87 0 259 3 317 7l37 -95c4 -10 1 -18 -5 -18s-10 3 -15 13l-26 48c-9 16 -8 17 -272 25v-285l218 11c14 1 17 2 19 18l6 46c1 7 4 10 9 10c7 0 8 -5 8 -13c0 -16 -4 -41 -4 -81c0 -39 4 -65 4 -82c0 -8 -1 -12 -8 -12c-5 0 -8 3 -9 9l-6 47c-2 15 -5 17 -19 18l-218 11
v-309zM141 812c-27 24 -15 53 9 53c11 0 22 -5 36 -23l116 -148h-24z" />
    <glyph glyph-name="Iacute" unicode="&#xcd;" horiz-adv-x="311" 
d="M126 42v571c0 17 0 20 -16 22l-64 7c-5 1 -9 3 -9 9c0 7 5 8 13 8c14 0 26 -4 112 -4c87 0 98 4 112 4c8 0 13 -1 13 -8c0 -6 -4 -8 -9 -9l-64 -7c-16 -2 -16 -5 -16 -22v-571c0 -16 0 -19 16 -21l64 -8c5 -1 9 -3 9 -9c0 -7 -5 -8 -13 -8c-14 0 -25 4 -112 4
c-86 0 -98 -4 -112 -4c-8 0 -13 1 -13 8c0 6 4 8 9 9l64 8c16 2 16 5 16 21zM306 812l-137 -118h-24l116 148c14 18 25 23 36 23c24 0 36 -29 9 -53z" />
    <glyph glyph-name="Icircumflex" unicode="&#xce;" horiz-adv-x="311" 
d="M126 42v571c0 17 0 20 -16 22l-64 7c-5 1 -9 3 -9 9c0 7 5 8 13 8c14 0 26 -4 112 -4c87 0 98 4 112 4c8 0 13 -1 13 -8c0 -6 -4 -8 -9 -9l-64 -7c-16 -2 -16 -5 -16 -22v-571c0 -16 0 -19 16 -21l64 -8c5 -1 9 -3 9 -9c0 -7 -5 -8 -13 -8c-14 0 -25 4 -112 4
c-86 0 -98 -4 -112 -4c-8 0 -13 1 -13 8c0 6 4 8 9 9l64 8c16 2 16 5 16 21zM143 844h41l95 -150h-21l-94 100l-95 -100h-20z" />
    <glyph glyph-name="Idieresis" unicode="&#xcf;" horiz-adv-x="311" 
d="M126 42v571c0 17 0 20 -16 22l-64 7c-5 1 -9 3 -9 9c0 7 5 8 13 8c14 0 26 -4 112 -4c87 0 98 4 112 4c8 0 13 -1 13 -8c0 -6 -4 -8 -9 -9l-64 -7c-16 -2 -16 -5 -16 -22v-571c0 -16 0 -19 16 -21l64 -8c5 -1 9 -3 9 -9c0 -7 -5 -8 -13 -8c-14 0 -25 4 -112 4
c-86 0 -98 -4 -112 -4c-8 0 -13 1 -13 8c0 6 4 8 9 9l64 8c16 2 16 5 16 21zM28 737c0 23 18 42 42 42c23 0 42 -19 42 -42c0 -24 -19 -43 -42 -43c-24 0 -42 19 -42 43zM214 737c0 23 19 42 42 42c24 0 43 -19 43 -42c0 -24 -19 -43 -43 -43c-23 0 -42 19 -42 43z" />
    <glyph glyph-name="Igrave" unicode="&#xcc;" horiz-adv-x="311" 
d="M126 42v571c0 17 0 20 -16 22l-64 7c-5 1 -9 3 -9 9c0 7 5 8 13 8c14 0 26 -4 112 -4c87 0 98 4 112 4c8 0 13 -1 13 -8c0 -6 -4 -8 -9 -9l-64 -7c-16 -2 -16 -5 -16 -22v-571c0 -16 0 -19 16 -21l64 -8c5 -1 9 -3 9 -9c0 -7 -5 -8 -13 -8c-14 0 -25 4 -112 4
c-86 0 -98 -4 -112 -4c-8 0 -13 1 -13 8c0 6 4 8 9 9l64 8c16 2 16 5 16 21zM8 812c-28 24 -16 53 9 53c11 0 21 -5 35 -23l116 -148h-24z" />
    <glyph glyph-name="Ntilde" unicode="&#xd1;" horiz-adv-x="808" 
d="M634 635l-64 7c-5 1 -9 3 -9 9c0 7 5 8 13 8c13 0 44 -4 98 -4c57 0 87 4 99 4c8 0 13 -1 13 -8c0 -6 -4 -8 -9 -9l-64 -7c-17 -2 -20 -6 -20 -20l-17 -567c-1 -45 -1 -53 -10 -53c-10 0 -13 12 -26 28l-478 559l8 -542c0 -14 5 -17 19 -19l63 -8c5 -1 9 -3 9 -9
c0 -7 -5 -8 -12 -8c-14 0 -30 4 -100 4c-61 0 -83 -4 -97 -4c-8 0 -13 1 -13 8c0 6 4 8 9 9l64 8c18 2 21 5 21 19l12 578c0 13 -2 17 -11 18l-55 6c-5 1 -9 3 -9 9c0 7 6 8 13 8c13 0 21 -4 108 -4l467 -546l-3 506c0 15 -3 18 -19 20zM306 682c10 59 32 88 65 88
c32 0 82 -29 104 -29c19 0 30 11 37 42h16c-10 -59 -32 -89 -65 -89c-32 0 -82 30 -104 30c-19 0 -30 -12 -37 -42h-16z" />
    <glyph glyph-name="Oacute" unicode="&#xd3;" horiz-adv-x="724" 
d="M37 325c0 194 144 342 331 342c190 0 331 -148 331 -348c0 -173 -126 -331 -331 -331c-193 0 -331 141 -331 337zM622 324c0 183 -109 319 -255 319c-144 0 -251 -136 -251 -319c0 -163 93 -312 251 -312c195 0 255 202 255 312zM509 812l-137 -118h-23l116 148
c14 17 24 23 35 23c25 0 36 -29 9 -53z" />
    <glyph glyph-name="Ocircumflex" unicode="&#xd4;" horiz-adv-x="724" 
d="M37 325c0 194 144 342 331 342c190 0 331 -148 331 -348c0 -173 -126 -331 -331 -331c-193 0 -331 141 -331 337zM622 324c0 183 -109 319 -255 319c-144 0 -251 -136 -251 -319c0 -163 93 -312 251 -312c195 0 255 202 255 312zM338 844h40l95 -150h-20l-94 100
l-96 -100h-19z" />
    <glyph glyph-name="Odieresis" unicode="&#xd6;" horiz-adv-x="724" 
d="M37 325c0 194 144 342 331 342c190 0 331 -148 331 -348c0 -173 -126 -331 -331 -331c-193 0 -331 141 -331 337zM622 324c0 183 -109 319 -255 319c-144 0 -251 -136 -251 -319c0 -163 93 -312 251 -312c195 0 255 202 255 312zM234 737c0 23 18 42 42 42s42 -19 42 -42
c0 -24 -18 -43 -42 -43s-42 19 -42 43zM420 737c0 23 19 42 43 42c23 0 42 -19 42 -42c0 -24 -19 -43 -42 -43c-24 0 -43 19 -43 43z" />
    <glyph glyph-name="Ograve" unicode="&#xd2;" horiz-adv-x="724" 
d="M37 325c0 194 144 342 331 342c190 0 331 -148 331 -348c0 -173 -126 -331 -331 -331c-193 0 -331 141 -331 337zM622 324c0 183 -109 319 -255 319c-144 0 -251 -136 -251 -319c0 -163 93 -312 251 -312c195 0 255 202 255 312zM215 812c-27 24 -16 53 9 53
c11 0 21 -6 35 -23l116 -148h-23z" />
    <glyph glyph-name="Otilde" unicode="&#xd5;" horiz-adv-x="724" 
d="M37 325c0 194 144 342 331 342c190 0 331 -148 331 -348c0 -173 -126 -331 -331 -331c-193 0 -331 141 -331 337zM622 324c0 183 -109 319 -255 319c-144 0 -251 -136 -251 -319c0 -163 93 -312 251 -312c195 0 255 202 255 312zM263 682c11 59 33 88 66 88
c32 0 82 -29 104 -29c19 0 30 11 37 42h16c-11 -59 -32 -89 -66 -89c-31 0 -81 30 -104 30c-18 0 -29 -12 -36 -42h-17z" />
    <glyph glyph-name="Uacute" unicode="&#xda;" horiz-adv-x="745" 
d="M624 213c-3 -137 -50 -225 -243 -225c-109 0 -255 35 -255 201v424c0 17 0 20 -16 22l-64 7c-5 1 -9 3 -9 9c0 7 5 8 13 8c14 0 26 -4 112 -4c87 0 98 4 112 4c8 0 13 -1 13 -8c0 -6 -4 -8 -9 -9l-64 -7c-16 -2 -16 -5 -16 -22v-436c0 -126 107 -162 191 -162
c163 0 209 78 208 205l-3 393c0 17 0 20 -15 22l-64 7c-5 1 -9 3 -9 9c0 7 5 8 13 8c13 0 45 -4 94 -4c51 0 81 4 94 4c8 0 13 -1 13 -8c0 -6 -4 -8 -9 -9l-64 -7c-15 -2 -15 -5 -15 -22zM512 812l-137 -118h-23l116 148c14 17 24 23 35 23c25 0 36 -29 9 -53z" />
    <glyph glyph-name="Ucircumflex" unicode="&#xdb;" horiz-adv-x="745" 
d="M624 213c-3 -137 -50 -225 -243 -225c-109 0 -255 35 -255 201v424c0 17 0 20 -16 22l-64 7c-5 1 -9 3 -9 9c0 7 5 8 13 8c14 0 26 -4 112 -4c87 0 98 4 112 4c8 0 13 -1 13 -8c0 -6 -4 -8 -9 -9l-64 -7c-16 -2 -16 -5 -16 -22v-436c0 -126 107 -162 191 -162
c163 0 209 78 208 205l-3 393c0 17 0 20 -15 22l-64 7c-5 1 -9 3 -9 9c0 7 5 8 13 8c13 0 45 -4 94 -4c51 0 81 4 94 4c8 0 13 -1 13 -8c0 -6 -4 -8 -9 -9l-64 -7c-15 -2 -15 -5 -15 -22zM358 844h40l95 -150h-21l-94 100l-95 -100h-20z" />
    <glyph glyph-name="Udieresis" unicode="&#xdc;" horiz-adv-x="745" 
d="M624 213c-3 -137 -50 -225 -243 -225c-109 0 -255 35 -255 201v424c0 17 0 20 -16 22l-64 7c-5 1 -9 3 -9 9c0 7 5 8 13 8c14 0 26 -4 112 -4c87 0 98 4 112 4c8 0 13 -1 13 -8c0 -6 -4 -8 -9 -9l-64 -7c-16 -2 -16 -5 -16 -22v-436c0 -126 107 -162 191 -162
c163 0 209 78 208 205l-3 393c0 17 0 20 -15 22l-64 7c-5 1 -9 3 -9 9c0 7 5 8 13 8c13 0 45 -4 94 -4c51 0 81 4 94 4c8 0 13 -1 13 -8c0 -6 -4 -8 -9 -9l-64 -7c-15 -2 -15 -5 -15 -22zM248 737c0 23 18 42 42 42c23 0 42 -19 42 -42c0 -24 -19 -43 -42 -43
c-24 0 -42 19 -42 43zM434 737c0 23 19 42 42 42c24 0 43 -19 43 -42c0 -24 -19 -43 -43 -43c-23 0 -42 19 -42 43z" />
    <glyph glyph-name="Ugrave" unicode="&#xd9;" horiz-adv-x="745" 
d="M624 213c-3 -137 -50 -225 -243 -225c-109 0 -255 35 -255 201v424c0 17 0 20 -16 22l-64 7c-5 1 -9 3 -9 9c0 7 5 8 13 8c14 0 26 -4 112 -4c87 0 98 4 112 4c8 0 13 -1 13 -8c0 -6 -4 -8 -9 -9l-64 -7c-16 -2 -16 -5 -16 -22v-436c0 -126 107 -162 191 -162
c163 0 209 78 208 205l-3 393c0 17 0 20 -15 22l-64 7c-5 1 -9 3 -9 9c0 7 5 8 13 8c13 0 45 -4 94 -4c51 0 81 4 94 4c8 0 13 -1 13 -8c0 -6 -4 -8 -9 -9l-64 -7c-15 -2 -15 -5 -15 -22zM240 812c-28 24 -16 53 9 53c10 0 21 -5 35 -23l116 -148h-24z" />
    <glyph glyph-name="Ydieresis" unicode="&#x178;" horiz-adv-x="646" 
d="M550 598l-182 -290v-266c0 -16 0 -19 16 -21l64 -8c5 -1 9 -3 9 -9c0 -7 -5 -8 -13 -8c-14 0 -26 4 -112 4s-98 -4 -112 -4c-8 0 -13 1 -13 8c0 6 4 8 9 9l64 8c16 2 16 5 16 21v260l-196 310c-11 18 -17 24 -34 26l-39 4c-5 1 -9 3 -9 9c0 7 5 8 12 8c14 0 26 -4 112 -4
c87 0 99 4 112 4c8 0 13 -1 13 -8c0 -6 -3 -8 -9 -9l-47 -5c-23 -2 -31 -15 -11 -46l161 -254l145 255c17 30 8 43 -20 46l-40 4c-5 1 -9 3 -9 9c0 7 5 8 13 8c14 0 37 -4 99 -4c56 0 66 4 80 4c8 0 12 -1 12 -8c0 -6 -2 -8 -8 -9l-33 -3c-19 -2 -30 -10 -50 -41zM475 812
l-136 -118h-24l116 148c14 18 25 23 36 23c24 0 36 -29 8 -53z" />
    <glyph glyph-name="aacute" unicode="&#xe1;" horiz-adv-x="361" 
d="M187 397c65 0 94 -28 94 -93v-250c0 -27 9 -40 28 -40c12 0 27 9 27 -4c0 -11 -30 -21 -53 -21c-38 0 -56 16 -60 50c-63 -39 -88 -50 -116 -50c-42 0 -70 30 -70 85c0 35 20 56 58 75l127 63v90c0 42 -25 67 -64 67c-44 0 -71 -24 -76 -72l-43 -9c7 63 83 109 148 109z
M129 144c-30 -17 -39 -31 -39 -61c0 -40 21 -59 47 -59c22 0 50 9 85 31v141zM323 553l-136 -118h-24l116 148c14 17 25 23 35 23c25 0 37 -29 9 -53z" />
    <glyph glyph-name="acircumflex" unicode="&#xe2;" horiz-adv-x="361" 
d="M187 397c65 0 94 -28 94 -93v-250c0 -27 9 -40 28 -40c12 0 27 9 27 -4c0 -11 -30 -21 -53 -21c-38 0 -56 16 -60 50c-63 -39 -88 -50 -116 -50c-42 0 -70 30 -70 85c0 35 20 56 58 75l127 63v90c0 42 -25 67 -64 67c-44 0 -71 -24 -76 -72l-43 -9c7 63 83 109 148 109z
M129 144c-30 -17 -39 -31 -39 -61c0 -40 21 -59 47 -59c22 0 50 9 85 31v141zM151 584h41l95 -149h-21l-94 99l-95 -99h-20z" />
    <glyph glyph-name="adieresis" unicode="&#xe4;" horiz-adv-x="361" 
d="M187 397c65 0 94 -28 94 -93v-250c0 -27 9 -40 28 -40c12 0 27 9 27 -4c0 -11 -30 -21 -53 -21c-38 0 -56 16 -60 50c-63 -39 -88 -50 -116 -50c-42 0 -70 30 -70 85c0 35 20 56 58 75l127 63v90c0 42 -25 67 -64 67c-44 0 -71 -24 -76 -72l-43 -9c7 63 83 109 148 109z
M129 144c-30 -17 -39 -31 -39 -61c0 -40 21 -59 47 -59c22 0 50 9 85 31v141zM47 477c0 24 19 43 42 43c24 0 43 -19 43 -43c0 -23 -19 -42 -43 -42c-23 0 -42 19 -42 42zM234 477c0 24 18 43 42 43s42 -19 42 -43c0 -23 -18 -42 -42 -42s-42 19 -42 42z" />
    <glyph glyph-name="agrave" unicode="&#xe0;" horiz-adv-x="361" 
d="M187 397c65 0 94 -28 94 -93v-250c0 -27 9 -40 28 -40c12 0 27 9 27 -4c0 -11 -30 -21 -53 -21c-38 0 -56 16 -60 50c-63 -39 -88 -50 -116 -50c-42 0 -70 30 -70 85c0 35 20 56 58 75l127 63v90c0 42 -25 67 -64 67c-44 0 -71 -24 -76 -72l-43 -9c7 63 83 109 148 109z
M129 144c-30 -17 -39 -31 -39 -61c0 -40 21 -59 47 -59c22 0 50 9 85 31v141zM33 553c-27 24 -15 53 9 53c11 0 22 -6 36 -23l116 -148h-24z" />
    <glyph glyph-name="aring" unicode="&#xe5;" horiz-adv-x="361" 
d="M187 397c65 0 94 -28 94 -93v-250c0 -27 9 -40 28 -40c12 0 27 9 27 -4c0 -11 -30 -21 -53 -21c-38 0 -56 16 -60 50c-63 -39 -88 -50 -116 -50c-42 0 -70 30 -70 85c0 35 20 56 58 75l127 63v90c0 42 -25 67 -64 67c-44 0 -71 -24 -76 -72l-43 -9c7 63 83 109 148 109z
M129 144c-30 -17 -39 -31 -39 -61c0 -40 21 -59 47 -59c22 0 50 9 85 31v141zM104 511c0 40 34 73 75 73c40 0 73 -33 73 -73c0 -41 -33 -75 -73 -75c-41 0 -75 34 -75 75zM140 511c0 -23 16 -39 39 -39c20 0 37 16 37 39c0 20 -17 37 -37 37c-23 0 -39 -17 -39 -37z" />
    <glyph glyph-name="atilde" unicode="&#xe3;" horiz-adv-x="361" 
d="M187 397c65 0 94 -28 94 -93v-250c0 -27 9 -40 28 -40c12 0 27 9 27 -4c0 -11 -30 -21 -53 -21c-38 0 -56 16 -60 50c-63 -39 -88 -50 -116 -50c-42 0 -70 30 -70 85c0 35 20 56 58 75l127 63v90c0 42 -25 67 -64 67c-44 0 -71 -24 -76 -72l-43 -9c7 63 83 109 148 109z
M129 144c-30 -17 -39 -31 -39 -61c0 -40 21 -59 47 -59c22 0 50 9 85 31v141zM67 422c11 59 32 89 66 89c31 0 81 -30 104 -30c18 0 29 12 36 43h17c-11 -59 -33 -89 -66 -89c-31 0 -82 30 -104 30c-19 0 -30 -12 -37 -43h-16z" />
    <glyph glyph-name="ccedilla" unicode="&#xe7;" horiz-adv-x="398" 
d="M205 -11c-100 4 -168 79 -168 190c0 114 104 218 221 218c64 0 115 -36 115 -51s-15 -36 -30 -36c-21 0 -40 61 -104 61c-81 0 -142 -76 -142 -175c0 -94 64 -165 148 -165c36 0 73 12 109 50l11 -14c-46 -49 -82 -74 -138 -78v-31c46 10 76 -9 76 -48
c0 -36 -28 -55 -67 -55c-26 0 -57 6 -91 21l7 17c33 -15 57 -19 76 -19c24 0 38 11 38 34c0 22 -22 39 -61 28v53z" />
    <glyph glyph-name="eacute" unicode="&#xe9;" horiz-adv-x="382" 
d="M99 272c-6 -15 -11 -35 -11 -58c0 -103 70 -183 160 -183c36 0 66 12 98 44l12 -14c-45 -46 -101 -72 -155 -72c-101 0 -166 73 -166 187c0 121 86 221 188 221c68 0 124 -50 124 -125h-250zM219 375c-48 0 -87 -29 -114 -86l185 6c-6 55 -29 80 -71 80zM355 553
l-137 -118h-24l116 148c14 17 25 23 36 23c24 0 36 -29 9 -53z" />
    <glyph glyph-name="ecircumflex" unicode="&#xea;" horiz-adv-x="382" 
d="M99 272c-6 -15 -11 -35 -11 -58c0 -103 70 -183 160 -183c36 0 66 12 98 44l12 -14c-45 -46 -101 -72 -155 -72c-101 0 -166 73 -166 187c0 121 86 221 188 221c68 0 124 -50 124 -125h-250zM219 375c-48 0 -87 -29 -114 -86l185 6c-6 55 -29 80 -71 80zM191 584h40
l95 -149h-20l-95 99l-95 -99h-20z" />
    <glyph glyph-name="edieresis" unicode="&#xeb;" horiz-adv-x="382" 
d="M99 272c-6 -15 -11 -35 -11 -58c0 -103 70 -183 160 -183c36 0 66 12 98 44l12 -14c-45 -46 -101 -72 -155 -72c-101 0 -166 73 -166 187c0 121 86 221 188 221c68 0 124 -50 124 -125h-250zM219 375c-48 0 -87 -29 -114 -86l185 6c-6 55 -29 80 -71 80zM82 477
c0 24 18 43 42 43c23 0 42 -19 42 -43c0 -23 -19 -42 -42 -42c-24 0 -42 19 -42 42zM268 477c0 24 19 43 42 43c24 0 43 -19 43 -43c0 -23 -19 -42 -43 -42c-23 0 -42 19 -42 42z" />
    <glyph glyph-name="egrave" unicode="&#xe8;" horiz-adv-x="382" 
d="M99 272c-6 -15 -11 -35 -11 -58c0 -103 70 -183 160 -183c36 0 66 12 98 44l12 -14c-45 -46 -101 -72 -155 -72c-101 0 -166 73 -166 187c0 121 86 221 188 221c68 0 124 -50 124 -125h-250zM219 375c-48 0 -87 -29 -114 -86l185 6c-6 55 -29 80 -71 80zM73 553
c-28 24 -16 53 9 53c10 0 21 -6 35 -23l116 -148h-24z" />
    <glyph glyph-name="iacute" unicode="&#xed;" horiz-adv-x="262" 
d="M167 39c0 -14 3 -16 19 -19l40 -7c8 -1 12 -3 12 -9c0 -5 -3 -8 -10 -8c-16 0 -22 4 -90 4c-69 0 -75 -4 -91 -4c-7 0 -10 3 -10 8c0 6 4 8 12 9l40 7c16 3 19 5 19 19v241c0 41 -7 45 -45 55c-6 2 -9 2 -9 7c0 4 3 6 13 7c39 5 66 15 100 51v-361zM275 553l-136 -118
h-24l116 148c14 17 24 23 35 23c25 0 37 -29 9 -53z" />
    <glyph glyph-name="icircumflex" unicode="&#xee;" horiz-adv-x="262" 
d="M167 39c0 -14 3 -16 19 -19l40 -7c8 -1 12 -3 12 -9c0 -5 -3 -8 -10 -8c-16 0 -22 4 -90 4c-69 0 -75 -4 -91 -4c-7 0 -10 3 -10 8c0 6 4 8 12 9l40 7c16 3 19 5 19 19v241c0 41 -7 45 -45 55c-6 2 -9 2 -9 7c0 4 3 6 13 7c39 5 66 15 100 51v-361zM102 584h40l96 -149
h-21l-94 99l-95 -99h-20z" />
    <glyph glyph-name="idieresis" unicode="&#xef;" horiz-adv-x="262" 
d="M167 39c0 -14 3 -16 19 -19l40 -7c8 -1 12 -3 12 -9c0 -5 -3 -8 -10 -8c-16 0 -22 4 -90 4c-69 0 -75 -4 -91 -4c-7 0 -10 3 -10 8c0 6 4 8 12 9l40 7c16 3 19 5 19 19v241c0 41 -7 45 -45 55c-6 2 -9 2 -9 7c0 4 3 6 13 7c39 5 66 15 100 51v-361zM-2 477
c0 24 19 43 42 43c24 0 43 -19 43 -43c0 -23 -19 -42 -43 -42c-23 0 -42 19 -42 42zM185 477c0 24 18 43 42 43c23 0 42 -19 42 -43c0 -23 -19 -42 -42 -42c-24 0 -42 19 -42 42z" />
    <glyph glyph-name="igrave" unicode="&#xec;" horiz-adv-x="262" 
d="M167 39c0 -14 3 -16 19 -19l40 -7c8 -1 12 -3 12 -9c0 -5 -3 -8 -10 -8c-16 0 -22 4 -90 4c-69 0 -75 -4 -91 -4c-7 0 -10 3 -10 8c0 6 4 8 12 9l40 7c16 3 19 5 19 19v241c0 41 -7 45 -45 55c-6 2 -9 2 -9 7c0 4 3 6 13 7c39 5 66 15 100 51v-361zM-12 553
c-27 24 -16 53 9 53c11 0 22 -6 35 -23l116 -148h-23z" />
    <glyph glyph-name="ntilde" unicode="&#xf1;" horiz-adv-x="528" 
d="M108 280c0 41 -7 45 -45 55c-6 2 -9 2 -9 7c0 4 3 6 13 7c39 5 66 15 100 51v-49c73 33 109 46 152 46c66 0 113 -44 113 -98v-260c0 -14 3 -16 19 -19l40 -7c8 -1 12 -3 12 -9c0 -5 -3 -8 -10 -8c-16 0 -21 4 -90 4s-75 -4 -91 -4c-6 0 -9 3 -9 8c0 6 3 8 11 9l41 7
c15 3 18 5 18 19v245c0 55 -30 80 -89 80c-33 0 -66 -10 -117 -32v-293c0 -14 3 -16 19 -19l40 -7c8 -1 12 -3 12 -9c0 -5 -3 -8 -10 -8c-16 0 -22 4 -90 4c-69 0 -75 -4 -91 -4c-7 0 -10 3 -10 8c0 6 4 8 12 9l40 7c16 3 19 5 19 19v241zM141 422c11 59 33 89 66 89
c32 0 82 -30 104 -30c19 0 30 12 37 43h16c-10 -59 -32 -89 -65 -89c-32 0 -82 30 -105 30c-18 0 -29 -12 -36 -43h-17z" />
    <glyph glyph-name="oacute" unicode="&#xf3;" horiz-adv-x="458" 
d="M231 -11c-116 0 -194 82 -194 205c0 122 80 203 202 203c116 0 194 -82 194 -200c0 -126 -77 -208 -202 -208zM369 190c0 117 -52 191 -135 191c-85 0 -134 -68 -134 -184c0 -113 54 -192 132 -192c90 0 137 65 137 185zM384 553l-136 -118h-24l116 148
c14 17 24 23 35 23c25 0 37 -29 9 -53z" />
    <glyph glyph-name="ocircumflex" unicode="&#xf4;" horiz-adv-x="458" 
d="M231 -11c-116 0 -194 82 -194 205c0 122 80 203 202 203c116 0 194 -82 194 -200c0 -126 -77 -208 -202 -208zM369 190c0 117 -52 191 -135 191c-85 0 -134 -68 -134 -184c0 -113 54 -192 132 -192c90 0 137 65 137 185zM211 584h40l96 -149h-21l-94 99l-95 -99h-20z" />
    <glyph glyph-name="odieresis" unicode="&#xf6;" horiz-adv-x="458" 
d="M231 -11c-116 0 -194 82 -194 205c0 122 80 203 202 203c116 0 194 -82 194 -200c0 -126 -77 -208 -202 -208zM369 190c0 117 -52 191 -135 191c-85 0 -134 -68 -134 -184c0 -113 54 -192 132 -192c90 0 137 65 137 185zM96 477c0 24 19 43 43 43c23 0 42 -19 42 -43
c0 -23 -19 -42 -42 -42c-24 0 -43 19 -43 42zM283 477c0 24 19 43 42 43c24 0 42 -19 42 -43c0 -23 -18 -42 -42 -42c-23 0 -42 19 -42 42z" />
    <glyph glyph-name="ograve" unicode="&#xf2;" horiz-adv-x="458" 
d="M231 -11c-116 0 -194 82 -194 205c0 122 80 203 202 203c116 0 194 -82 194 -200c0 -126 -77 -208 -202 -208zM369 190c0 117 -52 191 -135 191c-85 0 -134 -68 -134 -184c0 -113 54 -192 132 -192c90 0 137 65 137 185zM92 553c-27 24 -15 53 9 53c11 0 22 -6 36 -23
l115 -148h-23z" />
    <glyph glyph-name="otilde" unicode="&#xf5;" horiz-adv-x="458" 
d="M231 -11c-116 0 -194 82 -194 205c0 122 80 203 202 203c116 0 194 -82 194 -200c0 -126 -77 -208 -202 -208zM369 190c0 117 -52 191 -135 191c-85 0 -134 -68 -134 -184c0 -113 54 -192 132 -192c90 0 137 65 137 185zM126 422c11 59 32 89 66 89c31 0 81 -30 104 -30
c18 0 29 12 36 43h17c-11 -59 -33 -89 -66 -89c-32 0 -82 30 -104 30c-19 0 -30 -12 -37 -43h-16z" />
    <glyph glyph-name="uacute" unicode="&#xfa;" horiz-adv-x="508" 
d="M357 345c0 18 -2 21 -17 22l-26 2c-14 1 -18 3 -18 9s3 8 12 8h108v-337c0 -17 1 -21 14 -21c14 0 34 2 43 2c5 0 10 -2 10 -7s-2 -8 -9 -9c-33 -3 -84 -17 -117 -30v58c-88 -50 -115 -53 -146 -53c-55 0 -113 35 -113 95v261c0 18 -2 21 -16 22l-26 2c-15 1 -19 3 -19 9
s3 8 13 8h107v-285c0 -61 58 -73 91 -73c30 0 58 7 109 34v283zM390 553l-137 -118h-23l116 148c14 17 24 23 35 23c25 0 36 -29 9 -53z" />
    <glyph glyph-name="ucircumflex" unicode="&#xfb;" horiz-adv-x="508" 
d="M357 345c0 18 -2 21 -17 22l-26 2c-14 1 -18 3 -18 9s3 8 12 8h108v-337c0 -17 1 -21 14 -21c14 0 34 2 43 2c5 0 10 -2 10 -7s-2 -8 -9 -9c-33 -3 -84 -17 -117 -30v58c-88 -50 -115 -53 -146 -53c-55 0 -113 35 -113 95v261c0 18 -2 21 -16 22l-26 2c-15 1 -19 3 -19 9
s3 8 13 8h107v-285c0 -61 58 -73 91 -73c30 0 58 7 109 34v283zM223 584h40l96 -149h-21l-94 99l-96 -99h-19z" />
    <glyph glyph-name="udieresis" unicode="&#xfc;" horiz-adv-x="508" 
d="M357 345c0 18 -2 21 -17 22l-26 2c-14 1 -18 3 -18 9s3 8 12 8h108v-337c0 -17 1 -21 14 -21c14 0 34 2 43 2c5 0 10 -2 10 -7s-2 -8 -9 -9c-33 -3 -84 -17 -117 -30v58c-88 -50 -115 -53 -146 -53c-55 0 -113 35 -113 95v261c0 18 -2 21 -16 22l-26 2c-15 1 -19 3 -19 9
s3 8 13 8h107v-285c0 -61 58 -73 91 -73c30 0 58 7 109 34v283zM116 477c0 24 19 43 42 43c24 0 42 -19 42 -43c0 -23 -18 -42 -42 -42c-23 0 -42 19 -42 42zM303 477c0 24 18 43 42 43c23 0 42 -19 42 -43c0 -23 -19 -42 -42 -42c-24 0 -42 19 -42 42z" />
    <glyph glyph-name="ugrave" unicode="&#xf9;" horiz-adv-x="508" 
d="M357 345c0 18 -2 21 -17 22l-26 2c-14 1 -18 3 -18 9s3 8 12 8h108v-337c0 -17 1 -21 14 -21c14 0 34 2 43 2c5 0 10 -2 10 -7s-2 -8 -9 -9c-33 -3 -84 -17 -117 -30v58c-88 -50 -115 -53 -146 -53c-55 0 -113 35 -113 95v261c0 18 -2 21 -16 22l-26 2c-15 1 -19 3 -19 9
s3 8 13 8h107v-285c0 -61 58 -73 91 -73c30 0 58 7 109 34v283zM112 553c-28 24 -16 53 9 53c11 0 21 -6 35 -23l116 -148h-23z" />
    <glyph glyph-name="ydieresis" unicode="&#xff;" horiz-adv-x="448" 
d="M397 352l-180 -463c-80 -206 -105 -199 -128 -199c-22 0 -38 14 -38 32c0 19 15 32 35 32c17 0 27 -8 35 -8c9 0 23 8 114 234l-163 363c-10 23 -20 26 -42 29c-14 2 -17 4 -17 10c0 5 3 8 10 8c15 0 27 -4 80 -4c61 0 65 4 81 4c7 0 10 -3 10 -8c0 -6 -3 -7 -12 -9
l-29 -5c-17 -3 -24 -7 -14 -30l124 -283l96 283c6 19 4 26 -13 29l-36 6c-7 1 -11 3 -11 9c0 5 3 8 9 8c16 0 31 -4 65 -4s49 4 65 4c7 0 10 -3 10 -8c0 -6 -4 -8 -12 -9c-31 -5 -34 -8 -39 -21zM82 477c0 24 18 43 42 43c23 0 42 -19 42 -43c0 -23 -19 -42 -42 -42
c-24 0 -42 19 -42 42zM268 477c0 24 19 43 42 43c24 0 43 -19 43 -43c0 -23 -19 -42 -43 -42c-23 0 -42 19 -42 42z" />
    <glyph glyph-name="infinity" unicode="&#x221e;" horiz-adv-x="448" 
d="M397 352l-180 -463c-80 -206 -105 -199 -128 -199c-22 0 -38 14 -38 32c0 19 15 32 35 32c17 0 27 -8 35 -8c9 0 23 8 114 234l-163 363c-10 23 -20 26 -42 29c-14 2 -17 4 -17 10c0 5 3 8 10 8c15 0 27 -4 80 -4c61 0 65 4 81 4c7 0 10 -3 10 -8c0 -6 -3 -7 -12 -9
l-29 -5c-17 -3 -24 -7 -14 -30l124 -283l96 283c6 19 4 26 -13 29l-36 6c-7 1 -11 3 -11 9c0 5 3 8 9 8c16 0 31 -4 65 -4s49 4 65 4c7 0 10 -3 10 -8c0 -6 -4 -8 -12 -9c-31 -5 -34 -8 -39 -21zM396 553l-137 -118h-23l116 148c13 17 24 23 35 23c25 0 36 -29 9 -53z" />
    <glyph glyph-name="radical" unicode="&#x221a;" horiz-adv-x="292" 
d="M132 435l-95 149h20l95 -99l95 99h20l-95 -149h-40z" />
    <glyph glyph-name="nbspace" unicode="&#xa0;" horiz-adv-x="275" 
 />
    <glyph glyph-name="apple" unicode="&#xf8ff;" horiz-adv-x="386" 
d="M361 323v-324h-324v324h324z" />
    </font>
</defs>
</svg>
